<!-- Generated by IcoMoon.io -->
<svg version="1.1" xmlns="http://www.w3.org/2000/svg" width="32" height="32" viewBox="0 0 32 32">
<title>Earch</title>
<path fill="#000" d="M15.874 31.699c8.739 0 15.824-7.085 15.824-15.824s-7.085-15.824-15.824-15.824c-8.739 0-15.824 7.085-15.824 15.824s7.085 15.824 15.824 15.824z"></path>
<path fill="#000" d="M28.336 16.973c-0.596 0.803 0.414 2.027-0.050 2.911-0.301 0.565-1.073 0.709-1.449 1.23-0.439 0.59-0.207 1.424-0.333 2.146-0.213 1.255-1.474 2.152-1.613 3.413-0.050 0.445 0.050 0.904-0.031 1.343-0.082 0.445-0.458 0.891-0.904 0.816 0.27-0.609 0.276-1.324 0.025-1.939-0.138-0.333-0.351-0.64-0.427-0.991-0.1-0.458 0.044-0.929 0.025-1.393-0.025-0.496-0.232-0.966-0.433-1.424-0.383-0.86-0.91-1.832-1.845-1.983-0.515-0.082-1.142 0.088-1.5-0.295-0.195-0.207-0.238-0.527-0.439-0.722-0.232-0.22-0.584-0.226-0.866-0.37-0.527-0.276-0.653-0.96-0.728-1.55-0.025-0.238-0.050-0.496 0.050-0.715 0.094-0.195 0.295-0.345 0.339-0.565 0.094-0.508-0.709-1.054-0.326-1.405-0.144-0.207-0.477-0.107-0.653 0.069-0.176 0.182-0.282 0.427-0.496 0.558-0.188 0.113-0.42 0.113-0.64 0.088-0.527-0.063-1.029-0.27-1.456-0.584-0.276-0.207-0.615-0.471-0.922-0.32-0.126 0.056-0.213 0.176-0.339 0.22-0.326 0.113-0.627-0.27-0.973-0.27-0.194 0-0.364 0.126-0.533 0.22-0.973 0.533-2.215 0.138-3.118-0.508s-1.631-1.525-2.585-2.096c0.307 0.772 0.791 1.474 1.412 2.039-0.809 0.132-1.424-0.696-1.807-1.424-0.439-0.847-0.841-1.707-1.198-2.591-0.207-0.508-0.408-1.073-0.238-1.594 0.138-0.427 0.489-0.916 0.188-1.249-0.107-0.113-0.27-0.169-0.364-0.289-0.307-0.395-0.201-1.023-0.546-1.468-0.044-0.056-0.094-0.107-0.144-0.157 2.359-3.012 5.791-5.151 9.725-5.835 0.427 0.107 0.841 0.276 1.211 0.508 0.257 0.157 0.502 0.351 0.609 0.627s0.019 0.646-0.257 0.759c-0.151 0.063-0.314 0.044-0.477 0.019-1.305-0.182-2.61-0.358-3.922-0.54 0.816 0.207 1.631 0.42 2.447 0.627-0.558 0.74-1.7 0.577-2.591 0.339 0.333 0.32-0.088 0.86-0.502 1.067s-0.947 0.502-0.847 0.96c0.885-0.082 1.763-0.163 2.648-0.245-0.157-0.402-0.307-0.809-0.458-1.211 0.891-0.282 1.939-0.006 2.573 0.684-0.201-0.364-0.402-0.722-0.602-1.079 0.728 0.182 1.456 0.364 2.19 0.546 0.22 0.056 0.458 0.119 0.609 0.289 0.326 0.364 0.069 0.96-0.295 1.286-0.364 0.333-0.835 0.577-1.029 1.029-0.295 0.696 0.232 1.531-0.044 2.24-0.126 0.326-0.414 0.59-0.464 0.941-0.113 0.809 1.092 1.33 1.023 2.146-0.32 0.232-0.759-0.031-1.023-0.32s-0.565-0.646-0.954-0.609c-0.552 0.050-0.734 0.828-1.236 1.060-0.351 0.169-0.835 0.056-1.092 0.345-0.113 0.126-0.157 0.307-0.176 0.471-0.075 0.565 0.006 1.198 0.414 1.594s1.205 0.389 1.462-0.119c0.107-0.22 0.107-0.496 0.257-0.684 0.238-0.307 0.765-0.238 1.004 0.069 0.245 0.301 0.245 0.734 0.138 1.104 0.458-0.138 0.966-0.282 1.412-0.094s0.678 0.872 0.289 1.161c1.098 0.257 2.334-0.207 2.993-1.129 0.188-0.264 0.345-0.577 0.615-0.759 0.22-0.151 0.496-0.201 0.759-0.251 0.709-0.132 1.412-0.257 2.121-0.389 0.245-0.044 0.496-0.088 0.734-0.019 0.295 0.082 0.521 0.32 0.797 0.452 0.364 0.176 0.784 0.157 1.192 0.157 0.91-0.006 1.82 0.088 2.711 0.282 0.245 0.050 0.489 0.113 0.69 0.264 0.282 0.213 0.42 0.558 0.552 0.891 0.232 0.602 0.445 1.343 0.050 1.857-0.113 0.132-0.245 0.232-0.339 0.358z"></path>
<path fill="#000" d="M14.325 11.897c-0.1 0.013-0.22 0.056-0.226 0.157-0.006 0.113 0.151 0.157 0.264 0.157 0.552 0.006 1.111 0.006 1.663 0.013 0.584 0.006 0.427-0.326-0.025-0.408-0.514-0.1-1.155 0.006-1.675 0.082z"></path>
<path fill="#000" d="M17.838 11.627c0.125 0.113 0.119 0.395-0.163 0.508-0.307 0.126-0.483-0.088-0.264-0.358 0.169-0.226 0.333-0.232 0.427-0.151z"></path>
<path fill="#7c878d" opacity="0.2" d="M31.749 15.875c0 8.74-7.084 15.824-15.824 15.824-0.383 0-0.765-0.013-1.142-0.038-4.587-0.326-8.634-2.61-11.313-6.017 4.329-0.107 9.481-1.681 14.4-4.693 5.911-3.627 10.127-8.496 11.752-12.995 0.358 0.621 0.678 1.261 0.947 1.933 0.765 1.838 1.18 3.865 1.18 5.986z"></path>
<path fill="#7c878d" opacity="0.2" d="M31.749 15.874c0 8.74-7.084 15.824-15.824 15.824-0.383 0-0.765-0.013-1.142-0.038 2.184-1.205 4.373-2.755 6.444-4.624 5.98-5.402 9.399-12.034 9.349-17.154 0.759 1.845 1.173 3.871 1.173 5.992z"></path>
<path fill="#000" opacity="0.2" d="M18.704 4.562c2.635 3.413 1.537 8.671-2.441 11.74-3.978 3.075-9.343 2.792-11.978-0.621s-1.537-8.671 2.441-11.74c3.984-3.068 9.343-2.792 11.978 0.621z"></path>
<path fill="#fff" opacity="0.08" d="M16.245 4.43c2.096 2.711 1.224 6.889-1.939 9.336-3.162 2.441-7.429 2.221-9.518-0.489-2.096-2.711-1.224-6.889 1.939-9.336s7.429-2.221 9.518 0.489z"></path>
</svg>
