<!-- Generated by IcoMoon.io -->
<svg version="1.1" xmlns="http://www.w3.org/2000/svg" width="32" height="32" viewBox="0 0 32 32">
<title>Jupiter</title>
<path fill="#000" d="M16.034 31.912c8.649 0 15.66-7.011 15.66-15.66s-7.011-15.66-15.66-15.66c-8.649 0-15.66 7.011-15.66 15.66s7.011 15.66 15.66 15.66z"></path>
<path fill="#f2d994" d="M28.779 7.156c-0.334 0.286-0.715 0.538-1.083 0.749-7.149 4.228-15.367 6.223-23.442 8.17-1.273 0.306-2.567 0.613-3.867 0.769-0.048-1.198 0.048-2.39 0.272-3.547 1.906-0.654 4.18-0.953 5.093-1.219 3.99-1.151 7.911-2.526 11.751-4.119 2.138-0.892 4.249-1.845 6.325-2.866 0.681-0.34 1.369-0.681 2.043-1.021 1.096 0.885 2.077 1.913 2.907 3.084z"></path>
<path fill="#f2d994" opacity="0.48" d="M30.271 9.736c-8.279 4.827-17.757 7.135-27.084 9.375-0.81 0.197-1.62 0.395-2.437 0.558-0.32-1.409-0.436-2.826-0.361-4.208 1.838-0.483 3.69-0.756 4.541-1.001 4.65-1.341 9.232-2.948 13.699-4.807 2.492-1.035 4.95-2.152 7.374-3.343 0.497-0.245 0.987-0.49 1.477-0.735 1.137 1.205 2.083 2.601 2.791 4.16z"></path>
<path fill="#f2d994" opacity="0.48" d="M31.694 16.626c-0.054 2.267-0.599 4.46-1.566 6.448-6.802 3.234-14.223 5.14-21.59 6.924-1.566-0.851-2.989-1.974-4.187-3.323 1.784-0.463 3.554-0.722 4.378-0.96 4.65-1.341 9.232-2.948 13.699-4.807 2.492-1.035 4.95-2.151 7.38-3.343 0.626-0.306 1.26-0.62 1.886-0.94z"></path>
<path fill="#ca863f" d="M31.128 12.078c0.306 1.11 0.49 2.226 0.545 3.336-0.449 0.286-0.926 0.531-1.403 0.769-5.113 2.54-10.628 4.146-16.109 5.74-2.274 0.66-4.548 1.328-6.877 1.729-1.586 0.272-3.186 0.429-4.793 0.463-0.66-1.13-1.185-2.369-1.546-3.69-0.014-0.054-0.034-0.109-0.041-0.17 1.6-0.041 3.2-0.191 4.78-0.436 3.438-0.524 6.809-1.464 10.090-2.614 5.113-1.791 10.022-4.092 15.020-6.196 0.116 0.354 0.232 0.708 0.334 1.069z"></path>
<path fill="#f2d994" d="M31.414 19.186c-0.272 1.437-0.749 2.826-1.403 4.126-6.992 2.962-14.312 5.154-21.78 6.523-1.403-0.803-2.676-1.825-3.779-3.030 0.701-0.306 1.409-0.511 1.866-0.579 1.171-0.17 2.356 0.109 3.534 0.088 0.858-0.020 1.702-0.204 2.54-0.381 1.226-0.266 2.458-0.531 3.69-0.803 2.764-0.599 5.535-1.198 8.211-2.131 1.974-0.688 3.901-1.559 5.603-2.771 0.49-0.347 0.994-0.735 1.518-1.042z"></path>
<path fill="#c6853f" opacity="0.26" d="M20.82 2.444c-2.335 2.165-5.372 3.37-8.334 4.528-3.663 1.43-7.483 3.152-11.363 4.521 0.238-0.742 0.531-1.471 0.878-2.172 6.352-2.022 12.596-4.453 18.819-6.877z"></path>
<path fill="#c6853f" opacity="0.26" d="M21.889 27.915c-0.538 1.137-1.784 1.743-2.934 2.254-1.28 0.572-2.56 1.144-3.84 1.716-1.266-0.075-2.512-0.306-3.704-0.674 0.885-0.245 1.763-0.477 2.567-0.735 1.369-0.449 2.744-0.899 4.112-1.348 0.558-0.177 3.574-0.735 3.799-1.212z"></path>
<path fill="#f1c857" d="M23.428 23.585c0.218 0.776-0.851 1.757-2.39 2.179-1.532 0.422-2.955 0.136-3.173-0.64s0.851-1.757 2.39-2.179c1.539-0.429 2.955-0.143 3.173 0.64z"></path>
<path fill="#ca863f" d="M20.364 6.141c0.293 0.293 0.395 0.674 0.218 0.851s-0.558 0.082-0.851-0.204c-0.3-0.293-0.395-0.674-0.218-0.851 0.17-0.177 0.552-0.089 0.851 0.204z"></path>
<path fill="#f6df9e" d="M8.599 15.666c0.014 0.599-0.272 1.089-0.626 1.096-0.361 0.007-0.66-0.47-0.667-1.069-0.014-0.599 0.272-1.089 0.626-1.096 0.361-0.007 0.66 0.47 0.667 1.069z"></path>
<path fill="#f6df9e" d="M29.106 18.451c0.007 0.402-0.184 0.735-0.422 0.735-0.238 0.007-0.443-0.32-0.449-0.722s0.184-0.735 0.422-0.735c0.238-0.007 0.443 0.32 0.449 0.722z"></path>
<path fill="#f6df9e" d="M8.905 5.849c0.007 0.402-0.184 0.735-0.422 0.735-0.238 0.007-0.443-0.32-0.449-0.722s0.184-0.735 0.422-0.735c0.245 0 0.443 0.32 0.449 0.722z"></path>
<path fill="#ca863f" d="M12.010 29.093c0.15 0.143 0.197 0.334 0.109 0.422s-0.279 0.041-0.429-0.102c-0.15-0.143-0.197-0.334-0.109-0.422s0.279-0.041 0.429 0.102z"></path>
<path fill="#ab7335" d="M17.866 19.418c0.007 0.402-0.184 0.735-0.422 0.735-0.238 0.007-0.443-0.32-0.449-0.722s0.184-0.735 0.422-0.735c0.238 0 0.443 0.32 0.449 0.722z"></path>
<path fill="#7c878d" opacity="0.2" d="M31.115 12.044c2.301 8.327-2.58 16.94-10.907 19.241-0.368 0.102-0.735 0.191-1.096 0.266-4.453 0.899-8.912-0.211-12.357-2.751 4.099-1.239 8.586-4.099 12.473-8.266 4.677-5.011 7.408-10.757 7.768-15.476 0.504 0.497 0.98 1.028 1.416 1.586 1.212 1.559 2.145 3.377 2.703 5.399z"></path>
<path fill="#7c878d" opacity="0.2" d="M31.115 12.044c2.301 8.327-2.581 16.94-10.907 19.241-0.368 0.102-0.735 0.191-1.096 0.266 1.763-1.723 3.438-3.772 4.916-6.1 4.276-6.72 5.78-13.937 4.385-18.805 1.212 1.559 2.145 3.377 2.703 5.399z"></path>
<path fill="#fff" opacity="0.2" d="M12.916 5.658c2.642 1.981 2.914 6.094 0.599 9.178s-6.339 3.976-8.98 1.995c-2.642-1.981-2.914-6.094-0.599-9.178s6.339-3.976 8.98-1.995z"></path>
<path fill="#000" opacity="0.2" d="M15.231 5.147c3.329 2.499 3.663 7.666 0.749 11.547s-7.973 5.004-11.295 2.506c-3.323-2.499-3.663-7.666-0.749-11.547s7.973-5.004 11.295-2.505z"></path>
</svg>
