<!-- Generated by IcoMoon.io -->
<svg version="1.1" xmlns="http://www.w3.org/2000/svg" width="32" height="32" viewBox="0 0 32 32">
<title>Mars</title>
<path fill="#8b2200" d="M28.361 18.947c1.653-6.949-2.641-13.922-9.59-15.575s-13.922 2.641-15.575 9.59c-1.653 6.949 2.641 13.922 9.59 15.575s13.922-2.641 15.575-9.59z"></path>
<path fill="#6d1a00" d="M22.384 21.846c0.070 0.515-0.468 0.921-0.976 1.015-0.515 0.094-1.046-0.008-1.553 0.117s-0.999 0.617-0.827 1.108c0.258 0.765 1.678 0.593 1.865 1.381-0.601 0.398-0.531 1.303-0.25 1.959 0.062 0.148 0.133 0.297 0.203 0.445-1.561 0.663-3.278 1.038-5.081 1.038-3.036 0-5.838-1.046-8.047-2.81 0.656-0.5 1.116-1.225 1.163-2.045 0.016-0.219 0.016-0.484 0.203-0.609 0.109-0.078 0.258-0.078 0.39-0.070 1.171 0.039 2.341 0.078 3.512 0.117 0.258 0.008 0.531 0.016 0.765-0.101 0.499-0.242 0.601-0.882 0.718-1.421 0.265-1.233 0.976-2.427 2.092-3.013 1.124-0.585 2.661-0.414 3.45 0.578-0.429 0.172-0.343 0.866 0.031 1.139s0.866 0.281 1.327 0.375c0.445 0.078 0.952 0.336 1.015 0.796z"></path>
<path fill="#6d1a00" d="M27.34 12.941c-0.187 0.125-0.437 0.101-0.656 0.078-1.101-0.125-2.201-0.25-3.294-0.375-0.242-0.031-0.531-0.039-0.687 0.148-0.18 0.211-0.086 0.554-0.226 0.788-0.109 0.18-0.336 0.258-0.546 0.304-1.288 0.273-2.622-0.148-3.934-0.195-1.319-0.047-2.872 0.492-3.192 1.78-0.078 0.32-0.078 0.679-0.265 0.952-0.258 0.382-0.788 0.46-1.241 0.421-1.374-0.133-2.615-1.093-3.988-0.999-1.733 0.109-3.145 1.85-4.87 1.647-0.523-0.062-1.022-0.297-1.53-0.359-0.031-0.382-0.055-0.773-0.055-1.171 0-1.374 0.219-2.7 0.617-3.941 0.796-0.578 1.678-1.015 2.716-1.155 1.561-0.211 3.231 0.328 4.691-0.258 1.147-0.46 1.92-1.514 2.864-2.31s2.373-1.335 3.372-0.617c0.531 0.375 0.835 1.054 1.444 1.288 0.64 0.258 1.35-0.078 2.006-0.289s1.538-0.226 1.873 0.382c0.14 0.258 0.148 0.585 0.312 0.835 0.414 0.609 1.335 0.312 2.068 0.242 1.179-0.117 2.381 0.679 2.739 1.803 0.086 0.351 0.086 0.804-0.219 0.999z"></path>
<path fill="#6d1a00" d="M24.991 6.9c-0.359-0.109-0.718-0.203-1.077-0.265-1.015-0.172-2.107-0.117-2.989-0.64-0.741-0.445-1.225-1.249-2.006-1.639-0.695-0.343-1.53-0.312-2.201-0.687-0.211-0.117-0.429-0.343-0.617-0.624 3.473 0.078 6.619 1.545 8.89 3.856z"></path>
<path fill="#6d1a00" d="M28.379 18.841c-0.773 3.403-2.88 6.291-5.752 8.086-0.031-0.195-0.047-0.39-0.031-0.585 0.031-0.617 0.273-1.194 0.57-1.709 0.336-0.57 0.734-1.077 1.14-1.584 0.476-0.601 0.952-1.194 1.428-1.795 0.367-0.468 0.741-0.929 1.171-1.327 0.367-0.336 0.937-0.866 1.475-1.085z"></path>
<path fill="#a12800" d="M13.12 7.204c-1.311 0.952-2.911 1.413-4.48 1.858-1.498 0.421-2.966 0.882-4.472 1.186 1.116-2.263 2.872-4.144 5.034-5.424 1.272 0.086 2.529 0.086 3.653-0.468 0.375-0.187 0.812-0.437 1.186-0.242 0.226 0.117 0.359 0.375 0.406 0.624 0.195 0.968-0.531 1.889-1.327 2.466z"></path>
<path fill="#a12800" d="M28.699 15.961c0 0.367-0.016 0.726-0.047 1.085-0.656 0.008-1.311-0.031-1.959-0.14-0.523-0.086-1.046-0.211-1.577-0.18-0.96 0.047-1.858 0.593-2.825 0.546-0.125-0.008-0.25-0.023-0.351-0.102-0.289-0.219-0.109-0.687 0.156-0.937 0.944-0.89 2.404-0.788 3.7-0.78 0.952 0.008 1.928-0.055 2.88-0.203 0.016 0.234 0.023 0.468 0.023 0.71z"></path>
<path fill="#a12800" d="M11.98 19.34c0.008 0.148-0.125 0.258-0.25 0.343-1.397 0.937-3.458 0.695-4.605 1.928-0.211 0.226-0.382 0.492-0.617 0.695-0.46 0.39-1.077 0.468-1.686 0.554-0.297-0.46-0.554-0.944-0.788-1.444 1.928-0.492 3.169-1.233 4.917-2.201 0.851-0.468 1.951-0.71 2.771-0.203 0.14 0.086 0.258 0.195 0.258 0.328z"></path>
<path fill="#b62e1c" d="M6.97 16.632c-0.25-0.507-0.117-1.093 0.304-1.296 0.421-0.211 0.96 0.039 1.218 0.546 0.25 0.507 0.117 1.093-0.304 1.296-0.421 0.211-0.968-0.031-1.218-0.546z"></path>
<path fill="#581600" d="M11.84 5.479c0.101-0.421 0.468-0.695 0.812-0.609s0.539 0.5 0.437 0.913c-0.101 0.421-0.468 0.695-0.812 0.609-0.343-0.078-0.539-0.492-0.437-0.913z"></path>
<path fill="#581600" d="M12.496 14.736c0.101-0.421 0.468-0.695 0.812-0.609s0.539 0.499 0.437 0.913c-0.101 0.421-0.468 0.695-0.812 0.609-0.343-0.078-0.539-0.492-0.437-0.913z"></path>
<path fill="#581600" d="M24.859 19.824c0.101-0.421 0.468-0.695 0.812-0.609s0.539 0.5 0.437 0.913c-0.101 0.421-0.468 0.695-0.812 0.609s-0.539-0.492-0.437-0.913z"></path>
<path fill="#581600" d="M18.029 24.749c0.156-0.632 0.71-1.046 1.233-0.913s0.82 0.749 0.663 1.381c-0.156 0.632-0.71 1.046-1.233 0.913-0.523-0.125-0.82-0.749-0.663-1.381z"></path>
<path fill="#b62e1c" d="M25.179 13.11c0.463-0.463 0.53-1.148 0.149-1.529s-1.065-0.314-1.529 0.149c-0.463 0.463-0.53 1.148-0.149 1.529s1.065 0.314 1.529-0.149z"></path>
<path fill="#b62e1c" d="M11.536 25.811c-0.32-0.382-0.328-0.905-0.016-1.171s0.827-0.172 1.155 0.203c0.32 0.382 0.328 0.905 0.016 1.171s-0.835 0.172-1.155-0.203z"></path>
<path fill="#000" opacity="0.35" d="M17.873 6.712c2.154 2.786 1.257 7.087-1.998 9.592-3.255 2.513-7.633 2.287-9.787-0.507-2.154-2.786-1.257-7.087 1.998-9.592s7.633-2.279 9.787 0.507z"></path>
<path fill="#fff" opacity="0.35" d="M15.867 6.611c1.709 2.217 0.999 5.627-1.584 7.625s-6.072 1.819-7.781-0.398c-1.709-2.217-0.999-5.627 1.584-7.625 2.591-1.998 6.072-1.819 7.781 0.398z"></path>
<path fill="#7c878d" opacity="0.2" d="M28.488 15.961c0 7.141-5.791 12.925-12.933 12.925-0.312 0-0.624-0.008-0.929-0.031-3.746-0.265-7.056-2.131-9.241-4.917 3.536-0.086 7.742-1.374 11.762-3.84 4.831-2.966 8.273-6.939 9.6-10.622 0.297 0.507 0.554 1.030 0.773 1.577 0.624 1.522 0.968 3.177 0.968 4.909z"></path>
<path fill="#7c878d" opacity="0.2" d="M28.488 15.961c0 7.141-5.791 12.925-12.933 12.925-0.312 0-0.624-0.008-0.929-0.031 1.779-0.983 3.575-2.248 5.261-3.777 4.886-4.418 7.68-9.834 7.641-14.018 0.617 1.514 0.96 3.169 0.96 4.901z"></path>
</svg>
