<!-- Generated by IcoMoon.io -->
<svg version="1.1" xmlns="http://www.w3.org/2000/svg" width="32" height="32" viewBox="0 0 32 32">
<title>Mercury</title>
<path fill="#000" d="M16.083 31.858c8.594 0 15.561-6.967 15.561-15.561s-6.967-15.562-15.561-15.562c-8.594 0-15.561 6.967-15.561 15.562s6.967 15.561 15.561 15.561z"></path>
<path fill="#839196" d="M29.689 8.747c-0.296 0.107-0.616 0.178-0.913 0.237-1.055 0.19-2.193 0.249-3.081 0.841-1.339 0.889-1.73 2.678-2.797 3.887-1.351 1.517-3.603 1.884-5.63 1.671-1.79-0.201-3.603-0.77-5.345-0.308-1.268 0.332-2.335 1.185-3.461 1.861-2.311 1.399-5.013 2.098-7.704 2.062-0.154-0.877-0.237-1.778-0.237-2.702 0-2.904 0.794-5.618 2.181-7.941 0.676-0.273 1.351-0.569 2.086-0.806 4.113-1.375 8.711 0.462 12.93-0.557 1.932-0.462 3.662-1.505 5.476-2.311 0.723-0.32 1.493-0.616 2.264-0.818 1.73 1.316 3.176 2.975 4.231 4.883z"></path>
<path fill="#839196" d="M31.633 17.043c-0.154 3.188-1.256 6.139-3.046 8.533-2.394 0.64-4.693 1.813-7.159 1.825-2.785 0.024-5.487-1.434-8.249-1.031-1.707 0.249-3.224 1.197-4.764 2.003-0.427 0.225-0.865 0.439-1.327 0.616-1.873-1.327-3.449-3.070-4.575-5.084 0.166-0.083 0.344-0.154 0.521-0.225 2.596-0.936 5.452-0.119 8.201 0.213 1.529 0.19 3.070 0.225 4.599 0.107 0.699-0.059 1.41-0.154 2.015-0.51 0.593-0.356 1.019-0.948 1.493-1.458 2.228-2.276 5.57-2.56 8.474-3.354 1.434-0.367 2.56-0.984 3.816-1.636z"></path>
<path fill="#7c878d" d="M16.949 9.161c0.632-0.27 0.878-1.113 0.549-1.884s-1.108-1.176-1.74-0.906c-0.632 0.27-0.878 1.113-0.549 1.884s1.108 1.176 1.74 0.906z"></path>
<path fill="#b2c4cc" d="M9.162 16.356c0.178 0.403 0.047 0.853-0.296 0.995-0.332 0.142-0.747-0.071-0.924-0.474s-0.047-0.853 0.296-0.995c0.332-0.154 0.747 0.071 0.924 0.474z"></path>
<path fill="#b2c4cc" d="M6.578 8.308c-0.036 0.213-0.213 0.367-0.391 0.344s-0.296-0.237-0.261-0.45c0.036-0.213 0.213-0.367 0.391-0.344 0.178 0.036 0.296 0.237 0.261 0.45z"></path>
<path fill="#7c878d" d="M9.209 23.929c-0.036 0.213-0.213 0.367-0.391 0.344s-0.296-0.237-0.261-0.45c0.036-0.213 0.213-0.367 0.391-0.344 0.19 0.036 0.296 0.237 0.261 0.45z"></path>
<path fill="#7c878d" d="M24.581 8.308c-0.036 0.213-0.213 0.367-0.391 0.344-0.178-0.036-0.296-0.237-0.261-0.45s0.213-0.367 0.391-0.344c0.19 0.036 0.296 0.237 0.261 0.45z"></path>
<path fill="#7c878d" d="M23.881 23.301c-0.166 0.403-0.581 0.628-0.924 0.486-0.332-0.142-0.474-0.593-0.296-0.996 0.166-0.403 0.581-0.628 0.924-0.486 0.332 0.142 0.462 0.593 0.296 0.996z"></path>
<path fill="#7c878d" opacity="0.2" d="M31.644 16.296c0 8.593-6.969 15.561-15.561 15.561-0.379 0-0.747-0.012-1.126-0.036-4.516-0.32-8.498-2.56-11.129-5.914 4.255-0.107 9.316-1.647 14.163-4.622 5.819-3.567 9.956-8.356 11.556-12.776 0.356 0.604 0.664 1.244 0.936 1.896 0.747 1.813 1.161 3.804 1.161 5.89z"></path>
<path fill="#7c878d" opacity="0.2" d="M31.644 16.296c0 8.593-6.969 15.561-15.561 15.561-0.379 0-0.747-0.012-1.126-0.036 2.145-1.185 4.302-2.714 6.329-4.551 5.879-5.31 9.244-11.84 9.197-16.877 0.747 1.825 1.161 3.816 1.161 5.902z"></path>
<path fill="#fff" opacity="0.2" d="M15.822 5.049c2.062 2.667 1.209 6.779-1.908 9.185s-7.301 2.181-9.363-0.486c-2.062-2.667-1.209-6.779 1.908-9.173 3.105-2.418 7.301-2.204 9.363 0.474z"></path>
<path fill="#000" opacity="0.2" d="M18.228 5.167c2.584 3.354 1.517 8.521-2.406 11.544s-9.185 2.75-11.781-0.604c-2.584-3.354-1.517-8.521 2.406-11.544s9.197-2.75 11.781 0.604z"></path>
</svg>
