<!-- Generated by IcoMoon.io -->
<svg version="1.1" xmlns="http://www.w3.org/2000/svg" width="33" height="32" viewBox="0 0 33 32">
<title>Neptune</title>
<path fill="#2f4bb6" d="M24.601 23.527c4.135-4.632 3.731-11.739-0.901-15.874s-11.739-3.731-15.874 0.901c-4.135 4.632-3.731 11.739 0.901 15.874s11.739 3.731 15.874-0.901z"></path>
<path fill="#28409b" d="M21.557 18.704c-0.123 0.773-0.357 1.584-0.955 2.085-0.592 0.496-1.419 0.587-2.192 0.587-2.459-0.005-4.864-0.709-7.317-0.88-0.885-0.064-1.813-0.043-2.619 0.341-0.677 0.32-1.179 0.875-1.552 1.509-1.493-2.203-2.219-4.944-1.84-7.787 0.171-1.28 0.549-2.485 1.099-3.573 0.107 0.048 0.219 0.101 0.331 0.149 0.587 0.245 1.291 0.389 1.829 0.059 0.88-0.533 0.843-1.984 1.749-2.475 0.336-0.181 0.741-0.187 1.125-0.171 1.019 0.048 2.064 0.245 2.907 0.821s1.44 1.589 1.285 2.597c-0.128 0.843-0.752 1.557-1.504 1.968-0.405 0.224-0.891 0.405-1.083 0.827-0.171 0.363-0.059 0.805 0.187 1.12s0.608 0.517 0.971 0.672c1.792 0.757 3.845 0.549 5.712 0.021 0.309-0.085 0.635-0.187 0.949-0.123 0.443 0.085 0.773 0.485 0.901 0.912 0.123 0.432 0.085 0.896 0.016 1.339z"></path>
<path fill="#28409b" d="M27.371 17.515c-0.251 1.872-0.949 3.584-1.968 5.024-0.389-0.411-0.923-0.683-1.488-0.752-0.235-0.027-0.496-0.027-0.693-0.16-0.165-0.112-0.256-0.299-0.32-0.485-0.24-0.72-0.064-1.557 0.443-2.123 0.325-0.363 0.773-0.619 0.997-1.045 0.123-0.24 0.165-0.517 0.181-0.789 0.037-0.741-0.133-1.525-0.651-2.059-0.507-0.517-1.253-0.709-1.973-0.8-0.896-0.123-1.813-0.133-2.715-0.032-0.427 0.048-0.853 0.117-1.275 0.043s-0.837-0.336-0.965-0.741c-0.203-0.672 0.496-1.323 1.195-1.397 0.693-0.075 1.371 0.224 2.043 0.411s1.483 0.24 1.995-0.235c0.165-0.149 0.293-0.373 0.245-0.592-0.069-0.309-0.421-0.437-0.683-0.619-0.592-0.405-0.784-1.237-0.56-1.92s0.8-1.2 1.445-1.509c0.245-0.117 0.528-0.229 0.821-0.32 2.848 2.395 4.453 6.144 3.925 10.101z"></path>
<path fill="#28409b" d="M21.435 26.005c-1.984 1.040-4.299 1.499-6.683 1.179-1.584-0.208-3.051-0.741-4.336-1.52 0.053-0.011 0.101-0.021 0.155-0.032 1.621-0.309 3.291 0.085 4.944 0.037 1.152-0.032 2.288-0.277 3.44-0.235 0.848 0.032 1.696 0.229 2.48 0.571z"></path>
<path fill="#3f5bc4" d="M18.971 7.899c-2.176 0.667-4.4-1.12-6.672-0.987-1.547 0.091-2.88 1.003-4.325 1.488 1.579-1.707 3.675-2.907 6-3.381 0.091 0.037 0.181 0.075 0.277 0.117 0.645 0.283 1.248 0.661 1.92 0.875 0.907 0.288 1.877 0.267 2.816 0.432 0.299 0.053 0.629 0.155 0.752 0.432 0.192 0.443-0.309 0.88-0.768 1.024z"></path>
<path fill="#3f5bc4" d="M19.408 23.275c-0.091 0.283-0.389 0.437-0.667 0.523-1.941 0.597-4.16-0.683-6.016 0.128-0.869 0.384-1.483 1.157-2.176 1.813-0.875-0.512-1.675-1.136-2.373-1.856 1.339-0.731 2.811-1.584 4.293-1.669 0.917-0.053 1.824 0.208 2.736 0.325 0.816 0.101 1.648 0.080 2.459-0.064 0.384-0.069 0.779-0.165 1.152-0.059 0.379 0.101 0.709 0.491 0.592 0.859z"></path>
<path fill="#3f5bc4" d="M24.699 23.429c-0.288 0.331-0.592 0.64-0.917 0.933-0.091-0.112-0.192-0.213-0.32-0.293-0.224-0.133-0.491-0.176-0.736-0.267s-0.491-0.267-0.539-0.523c-0.059-0.347 0.288-0.651 0.635-0.677 0.352-0.027 0.683 0.139 0.987 0.309 0.299 0.165 0.592 0.341 0.891 0.517z"></path>
<path fill="#3f5bc4" d="M16.069 18.336c-0.443 0.213-0.976 0.459-1.461 0.539-0.592 0.101-1.205 0.075-1.787-0.064-1.232-0.299-1.792-1.333-2.875-1.765-0.901-0.357-1.797 0.336-2.704 0.112-0.773-0.187-1.221-0.752-2.016-0.203-0.064 0.043-0.128 0.091-0.197 0.144-0.053-0.581-0.064-1.173-0.021-1.771 0.395-0.224 0.779-0.491 1.189-0.773 0.011-0.005 0.021-0.011 0.032-0.021 0.4-0.267 0.896-0.448 1.371-0.277 0.427 0.149 0.571 0.592 1.099 0.485 0.315-0.064 0.576-0.256 0.859-0.405 0.357-0.192 2.005-0.8 2.235-0.165 0.208 0.576-1.136 0.389-0.976 1.104 0.048 0.208 0.203 0.368 0.363 0.507 0.816 0.688 2.187 2.053 3.275 2.171 0.555 0.059 1.2-0.085 1.616 0.384z"></path>
<path fill="#3f5bc4" d="M27.467 16.235c-0.64-0.341-1.088-0.997-1.568-1.568-0.688-0.821-1.573-1.552-2.635-1.728-0.245-0.043-0.512-0.059-0.72-0.203s-0.299-0.48-0.107-0.645c0.144-0.117 0.363-0.080 0.539-0.021 1.104 0.352 2.101 1.077 3.259 1.211 0.293 0.037 0.592 0.027 0.88-0.021 0.251 0.96 0.373 1.957 0.352 2.976z"></path>
<path fill="#223684" d="M15.755 10.699c-0.155-0.453-0.011-0.907 0.315-1.019 0.331-0.112 0.72 0.165 0.869 0.619 0.155 0.453 0.011 0.907-0.315 1.019-0.325 0.107-0.715-0.165-0.869-0.619z"></path>
<path fill="#223684" d="M14.795 24.080c0.139-0.299 0.352-0.491 0.485-0.427 0.133 0.059 0.128 0.352-0.005 0.651s-0.352 0.491-0.485 0.427c-0.133-0.064-0.133-0.357 0.005-0.651z"></path>
<path fill="#223684" d="M23.525 18.592c-0.123-0.304-0.117-0.592 0.016-0.651 0.133-0.053 0.347 0.144 0.469 0.448s0.117 0.592-0.016 0.651c-0.139 0.053-0.347-0.144-0.469-0.448z"></path>
<path fill="#5a75e0" d="M8.192 18.96c-0.112-0.272-0.048-0.555 0.139-0.635 0.192-0.080 0.437 0.080 0.549 0.352s0.048 0.56-0.139 0.635c-0.192 0.080-0.437-0.075-0.549-0.352z"></path>
<path fill="#5a75e0" d="M22.715 9.035c0.107-0.171 0.288-0.245 0.405-0.176s0.128 0.272 0.021 0.437c-0.107 0.171-0.288 0.245-0.405 0.176s-0.128-0.267-0.021-0.437z"></path>
<path fill="#5a75e0" d="M20.736 24.213c0.096-0.176 0.272-0.261 0.395-0.197 0.123 0.069 0.144 0.261 0.048 0.437s-0.272 0.261-0.395 0.197c-0.123-0.064-0.144-0.261-0.048-0.437z"></path>
<path fill="#5a75e0" d="M6.901 12.144c0.048-0.085 0.133-0.133 0.197-0.096 0.059 0.032 0.069 0.133 0.021 0.219s-0.133 0.133-0.197 0.096c-0.059-0.037-0.069-0.133-0.021-0.219z"></path>
<path fill="#fff" opacity="0.15800000000000003" d="M15.251 14.436c2.395-1.389 3.372-4.179 2.181-6.233s-4.098-2.593-6.493-1.205c-2.395 1.389-3.372 4.179-2.181 6.233s4.098 2.593 6.493 1.205z"></path>
<path fill="#000" opacity="0.15800000000000003" d="M19.125 8.512c1.499 2.587 0.267 6.096-2.747 7.84-3.013 1.749-6.672 1.067-8.171-1.515s-0.267-6.096 2.747-7.84c3.013-1.749 6.672-1.072 8.171 1.515z"></path>
<path fill="#7c878d" opacity="0.2" d="M27.184 17.467c-0.816 6.149-6.459 10.469-12.608 9.659-0.272-0.037-0.539-0.080-0.8-0.133-3.195-0.656-5.829-2.64-7.397-5.291 3.056 0.331 6.827-0.299 10.565-1.963 4.496-2 7.915-5.029 9.483-8.048 0.192 0.469 0.357 0.955 0.491 1.445 0.363 1.371 0.464 2.837 0.267 4.331z"></path>
<path fill="#7c878d" opacity="0.2" d="M27.184 17.467c-0.816 6.149-6.459 10.469-12.608 9.659-0.272-0.037-0.539-0.080-0.8-0.133 1.648-0.645 3.333-1.531 4.96-2.651 4.709-3.243 7.733-7.589 8.176-11.2 0.368 1.365 0.469 2.832 0.272 4.325z"></path>
</svg>
