<!-- Generated by IcoMoon.io -->
<svg version="1.1" xmlns="http://www.w3.org/2000/svg" width="62" height="32" viewBox="0 0 62 32">
<title>Saturn</title>
<path fill="#000" d="M31.94 31.68c8.68 0 15.716-7.036 15.716-15.716s-7.036-15.716-15.716-15.716-15.716 7.036-15.716 15.716c0 8.68 7.036 15.716 15.716 15.716z"></path>
<path fill="#f2d994" d="M45.114 24.531c-1.117 0.272-2.343 0.241-3.502 0.157-3.882-0.29-7.716-1.020-11.52-1.835-3.749-0.803-7.601-1.733-10.699-4.009-1.153-0.851-2.174-1.872-3.176-2.898 0.006-3.055 0.894-6.116 2.675-8.755 0.821 0.628 1.666 1.22 2.542 1.775 2.729 1.721 5.675 3.079 8.718 4.136 4.891 1.703 10.017 2.639 15.155 3.23 0.779 0.091 1.564 0.175 2.312 0.374-0.109 2.735-0.954 5.446-2.506 7.825z"></path>
<path fill="#f2d994" opacity="0.48" d="M46.72 10.62c-0.060 0-0.115 0.006-0.175 0.012-4.74 0.193-9.467-0.9-13.863-2.669-2.952-1.189-5.772-2.687-8.507-4.329-0.35-0.211-0.725-0.423-1.105-0.64 0.64-0.441 1.31-0.827 1.992-1.159 0.35 0.248 0.706 0.489 1.069 0.718 5.235 3.339 11.448 4.691 17.528 5.941 0.803 0.163 1.612 0.332 2.397 0.561 0.254 0.507 0.471 1.032 0.664 1.564z"></path>
<path fill="#f2d994" opacity="0.48" d="M39.843 29.549c-1.087 0.634-2.228 1.123-3.405 1.473-3.78-0.344-7.42-1.678-10.934-3.134-2.3-0.948-4.595-1.962-6.654-3.375-0.054-0.036-0.109-0.072-0.163-0.115-0.561-0.881-1.026-1.805-1.395-2.759 1.697 1.214 3.448 2.349 5.331 3.236 5.38 2.554 11.52 2.928 17.22 4.673z"></path>
<path fill="#ecc88b" d="M44.565 6.611c-3.146-0.646-6.442-1.093-9.497-2.095-0.38-0.127-0.767-0.266-1.087-0.507-1.316-0.99-0.175-1.485 0.857-1.286 0.797 0.151 1.534 0.507 2.319 0.719 1.709 0.465 3.478 0.857 5.18 0.749 0.205 0.181 0.411 0.368 0.604 0.561 0.604 0.586 1.141 1.208 1.624 1.86z"></path>
<path fill="#ecc88b" d="M31.656 11.454c-2.765-1.358-5.295-3.309-8.332-4.039-1.123-0.266-2.264-0.507-3.254-1.135-0.109-0.072-0.217-0.145-0.326-0.217 0.308-0.38 0.634-0.749 0.984-1.105 0.223-0.223 0.447-0.441 0.676-0.646 1.914 1.31 3.876 2.512 6.032 3.448 0.217 0.097 0.435 0.187 0.652 0.272 1.371 0.549 2.675 1.256 3.949 1.992 0.386 0.223 1.618 0.694 1.811 1.081 0.592 1.171-1.817 0.531-2.192 0.35z"></path>
<path fill="#ecc88b" d="M47.577 14.37c-0.67-0.223-1.334-0.489-2.011-0.682-1.63-0.471-3.357-0.501-5.041-0.706-0.235-0.030-0.555-0.223-0.417-0.417 0.030-0.048 0.091-0.072 0.139-0.097 0.622-0.266 1.322-0.187 1.992-0.103 1.709 0.217 3.423 0.471 5.138 0.67 0.085 0.441 0.151 0.888 0.199 1.334z"></path>
<path fill="#ecc88b" d="M33.823 20.39c-0.477 0.411-1.183 0.405-1.805 0.284-1.576-0.308-2.977-1.177-4.444-1.829-1.884-0.839-3.9-1.334-5.905-1.829-1.491-0.368-2.989-0.731-4.48-1.099-0.32-0.079-0.64-0.157-0.966-0.248 0.024-1.171 0.175-2.343 0.459-3.484 0.93 0.706 1.829 1.497 2.892 1.986 1.491 0.682 3.079 1.135 4.637 1.642 3.2 1.032 6.322 2.3 9.34 3.78 0.229 0.109 0.489 0.296 0.441 0.543-0.012 0.103-0.091 0.187-0.169 0.254z"></path>
<path fill="#ecc88b" d="M43.152 26.971c-0.308 0.314-0.622 0.604-0.948 0.888-0.555-0.042-1.111-0.012-1.66 0.091-0.586 0.115-1.177 0.308-1.763 0.223-0.537-0.078-1.008-0.392-1.534-0.531-0.64-0.175-1.322-0.091-1.986-0.127-1.654-0.091-3.17-0.918-4.619-1.727-0.284-0.157-0.616-0.465-0.453-0.743 0.121-0.217 0.429-0.205 0.67-0.157 0.948 0.193 1.841 0.586 2.759 0.906 2.143 0.749 4.426 1.081 6.696 1.008 1.141-0.042 2.282-0.181 3.393-0.429-0.175 0.205-0.362 0.405-0.555 0.598z"></path>
<path fill="#ecc88b" d="M25.443 29.18c-0.477 0.072-0.99-0.042-1.449-0.157-0.344-0.085-0.694-0.133-1.045-0.175-0.706-0.495-1.383-1.057-2.017-1.678-0.592-0.58-1.123-1.195-1.606-1.835 0.066 0.036 0.133 0.072 0.193 0.109 0.048 0.030 0.103 0.060 0.151 0.097 0.894 0.58 1.648 1.316 2.687 1.66 0.706 0.235 1.455 0.302 2.192 0.453 0.731 0.151 1.473 0.405 1.992 0.942 0.133 0.139-0.99 0.574-1.099 0.586z"></path>
<path fill="#ca863f" d="M43.49 12.818c-0.29 0.296-0.676 0.399-0.851 0.223-0.181-0.175-0.085-0.555 0.205-0.857 0.29-0.296 0.676-0.399 0.851-0.223 0.181 0.175 0.091 0.562-0.205 0.857z"></path>
<path fill="#ca863f" d="M33.045 18.584c0.169 0.38 0.115 0.773-0.115 0.875-0.229 0.097-0.549-0.127-0.718-0.513-0.169-0.38-0.115-0.773 0.115-0.875 0.229-0.097 0.549 0.133 0.718 0.513z"></path>
<path fill="#ca863f" d="M43.429 19.345c0.078 0.181-0.006 0.392-0.187 0.477-0.181 0.078-0.392-0.006-0.477-0.187-0.078-0.181 0.006-0.392 0.187-0.477 0.181-0.078 0.392 0.006 0.477 0.187z"></path>
<path fill="#ca863f" d="M21.549 24.374c0.078 0.181-0.006 0.392-0.187 0.477-0.181 0.078-0.392-0.006-0.477-0.187-0.078-0.181 0.006-0.392 0.187-0.477 0.181-0.078 0.398 0.006 0.477 0.187z"></path>
<path fill="#f1dbb7" d="M19.816 13.802c-0.29 0.296-0.676 0.399-0.851 0.223-0.181-0.175-0.085-0.555 0.205-0.857 0.29-0.296 0.676-0.399 0.851-0.223s0.085 0.555-0.205 0.857z"></path>
<path fill="#f1dbb7" d="M31.439 27.568c0 0.241-0.127 0.441-0.296 0.441-0.163 0-0.302-0.193-0.302-0.435s0.127-0.441 0.296-0.441c0.169 0 0.302 0.193 0.302 0.435z"></path>
<path fill="#f1dbb7" d="M25.576 9.811c0 0.242-0.127 0.441-0.296 0.441-0.163 0-0.302-0.193-0.302-0.435s0.127-0.441 0.296-0.441c0.169-0.006 0.302 0.187 0.302 0.435z"></path>
<path fill="#f1dbb7" d="M40.851 4.269c-0.175 0.163-0.411 0.199-0.525 0.079-0.109-0.121-0.060-0.35 0.121-0.519 0.175-0.163 0.411-0.199 0.525-0.079 0.109 0.121 0.054 0.35-0.121 0.519z"></path>
<path fill="#7c878d" opacity="0.2" d="M43.134 26.904c-6.074 6.189-16.006 6.273-22.195 0.205-0.272-0.266-0.531-0.543-0.779-0.821-3.019-3.417-4.299-7.843-3.822-12.118 3.134 2.934 7.873 5.398 13.452 6.678 6.702 1.54 13.066 1.020 17.346-1.032-0.175 0.688-0.398 1.365-0.67 2.029-0.743 1.835-1.86 3.562-3.333 5.060z"></path>
<path fill="#7c878d" opacity="0.2" d="M43.134 26.904c-6.074 6.189-16.006 6.273-22.195 0.205-0.272-0.266-0.531-0.543-0.779-0.821 2.379 0.664 5.005 1.087 7.771 1.201 7.988 0.332 15.016-1.986 18.536-5.645-0.743 1.835-1.86 3.562-3.333 5.060z"></path>
<path fill="#fff" opacity="0.2" d="M39.746 8.097c-0.392 3.297-3.828 5.591-7.674 5.132s-6.642-3.502-6.243-6.798c0.398-3.297 3.828-5.591 7.674-5.132s6.635 3.508 6.243 6.799z"></path>
<path fill="#000" opacity="0.2" d="M41.358 9.854c-0.495 4.142-4.818 7.034-9.654 6.46-4.836-0.58-8.35-4.408-7.855-8.549s4.818-7.034 9.654-6.46c4.836 0.574 8.35 4.402 7.855 8.549z"></path>
<path fill="#000" d="M44.317 25.648c-4.492-0.809-9.576-1.998-14.901-3.544-4.752-1.383-9.195-2.898-13.096-4.432-9.956-3.925-16.429-7.988-15.752-10.325 0.67-2.306 8.145-2.294 18.463-0.344-0.495 0.712-0.924 1.461-1.286 2.228-4.142-0.423-6.889-0.115-7.215 1.014-0.332 1.147 1.896 2.91 5.724 4.806 3.484 1.727 8.302 3.562 13.718 5.138 6.159 1.787 11.834 2.874 15.849 3.146 3.399 0.229 5.603-0.121 5.899-1.123 0.29-0.984-1.322-2.433-4.22-4.027 0.127-0.9 0.175-1.805 0.151-2.705 8.972 3.701 14.666 7.432 14.032 9.624-0.646 2.228-7.62 2.294-17.365 0.543z"></path>
<path fill="#d1bca6" opacity="0.26" d="M2.524 9.069c-0.851-0.833-0.954-1.304-0.918-1.419 0.072-0.242 1.063-0.942 4.583-0.984 2.856-0.036 6.66 0.35 11.073 1.123-0.054 0.097-0.109 0.199-0.163 0.296-6.177-0.519-7.312 0.803-7.62 1.86-0.254 0.869 0.115 1.799 1.093 2.759 1.026 1.008 2.771 2.125 5.192 3.327 1.226 0.61 2.59 1.22 4.063 1.817-1.063-0.386-2.101-0.779-3.122-1.183-6.853-2.705-12.021-5.476-14.183-7.595zM39.831 23.644c2.18 0.392 4.184 0.658 5.917 0.773 4.323 0.296 6.551-0.308 7.010-1.902 0.254-0.869-0.115-1.799-1.093-2.759-0.682-0.67-1.691-1.395-3.007-2.155 0.018-0.163 0.030-0.332 0.042-0.495 5.253 2.264 9.226 4.522 11.019 6.285 0.851 0.833 0.954 1.31 0.918 1.419-0.066 0.229-0.99 0.894-4.251 0.978-2.971 0.072-7.082-0.338-11.876-1.201-1.509-0.272-3.079-0.586-4.679-0.942z"></path>
</svg>
