<!-- Generated by IcoMoon.io -->
<svg version="1.1" xmlns="http://www.w3.org/2000/svg" width="14" height="32" viewBox="0 0 14 32">
<title>Sun</title>
<path fill="#000" d="M1.687 18.11c4.984 0 9.024-4.040 9.024-9.024s-4.040-9.024-9.024-9.024c-4.984 0-9.024 4.040-9.024 9.024s4.040 9.024 9.024 9.024z"></path>
<path fill="#000" d="M1.687 17.385c4.583 0 8.298-3.715 8.298-8.298s-3.715-8.298-8.298-8.298-8.298 3.715-8.298 8.298c0 4.583 3.715 8.298 8.298 8.298z"></path>
<path fill="#000" d="M6.032 10.151c-0.25-0.144-0.56-0.307-0.572-0.596-0.010-0.237 0.202-0.447 0.171-0.682-0.036-0.281-0.404-0.518-0.271-0.768 0.075-0.142 0.298-0.216 0.277-0.375-0.012-0.092-0.104-0.148-0.186-0.189-0.166-0.081-0.346-0.153-0.53-0.146s-0.378 0.113-0.434 0.29c-0.052 0.163 0.019 0.349-0.042 0.509-0.066 0.174-0.266 0.257-0.449 0.285-0.467 0.073-1.017-0.061-1.365 0.259-0.169 0.154-0.246 0.385-0.39 0.562-0.388 0.475-1.11 0.446-1.719 0.373-0.176-0.296-0.114-0.713 0.142-0.943 0.283-0.256 0.778-0.326 0.871-0.697 0.070-0.279-0.15-0.58-0.053-0.851 0.045-0.126 0.151-0.218 0.25-0.308 0.208-0.188 0.41-0.398 0.506-0.661s0.060-0.593-0.153-0.775c-0.226-0.194-0.559-0.165-0.856-0.193s-0.647-0.199-0.638-0.498c0.009-0.287 0.36-0.517 0.278-0.792-0.051-0.171-0.25-0.251-0.427-0.264s-0.362 0.015-0.531-0.041c-0.169-0.057-0.314-0.249-0.236-0.409 0.070-0.142 0.258-0.166 0.417-0.172 0.226-0.008 0.452-0.016 0.678-0.024 0.087-0.003 0.182-0.010 0.246-0.070 0.090-0.085 0.071-0.231 0.115-0.346 0.093-0.244 0.421-0.282 0.68-0.246s0.555 0.092 0.754-0.078c0.057-0.049 0.101-0.114 0.165-0.152 0.133-0.079 0.3-0.023 0.454-0.018s0.347-0.118 0.288-0.262c-0.239-0.154-0.552-0.186-0.817-0.084-0.275 0.106-0.517 0.35-0.811 0.324-0.25-0.022-0.445-0.234-0.69-0.282-0.462-0.090-0.837 0.414-1.304 0.47-0.328 0.039-0.693-0.143-0.973 0.032-0.142 0.089-0.246 0.263-0.413 0.266-0.244 0.004-0.313-0.331-0.298-0.575-0.3-0.104-0.665 0.034-0.82 0.31-0.024 0.042-0.044 0.092-0.031 0.139 0.034 0.133 0.23 0.091 0.366 0.117 0.204 0.038 0.302 0.296 0.242 0.494s-0.23 0.342-0.401 0.459c-0.758 0.526-1.688 0.782-2.396 1.374-0.078 0.066-0.16 0.153-0.144 0.254 0.014 0.088 0.098 0.145 0.151 0.217 0.141 0.191 0.043 0.474-0.127 0.64s-0.398 0.258-0.587 0.401c-0.19 0.142-0.35 0.375-0.291 0.605 0 0.001 0.89-0.221 0.978-0.234 0.014 0.602-0.703 0.432-0.992 0.758-0.268 0.302 0.001 0.463-0.014 0.744-0.014 0.279-0.385 0.482-0.241 0.792 0.045 0.096 0.136 0.162 0.19 0.253 0.15 0.252 0.001 0.656 0.246 0.817 0.182 0.119 0.473 0.005 0.612 0.171 0.2 0.238-0.182 0.722 0.093 0.866 0.14 0.074 0.308-0.060 0.364-0.208s0.050-0.315 0.117-0.459c0.103-0.222 0.347-0.333 0.546-0.476s0.374-0.402 0.26-0.619c-0.048-0.090-0.138-0.152-0.186-0.242-0.117-0.222 0.068-0.476 0.232-0.666s0.319-0.478 0.16-0.671c0.293-0.114 0.527-0.368 0.616-0.67 0.050-0.17 0.055-0.351 0.11-0.519s0.177-0.334 0.352-0.362c-0.116 0.176 0.007 0.454 0.215 0.488 0.118 0.019 0.236-0.030 0.355-0.030s0.26 0.086 0.238 0.202c-0.014 0.072-0.082 0.119-0.114 0.186-0.051 0.107 0.006 0.234 0.004 0.352-0.009 0.44-0.786 0.624-0.688 1.054 0.039 0.172 0.21 0.274 0.333 0.4s0.188 0.366 0.038 0.458c0.148 0.233 0.547 0.071 0.633-0.191s-0.009-0.544-0.034-0.819c-0.009-0.097-0.002-0.21 0.076-0.268 0.104-0.078 0.263-0.006 0.377-0.069 0.198-0.11 0.053-0.474 0.233-0.61 0.137-0.104 0.33 0.014 0.449 0.139s0.27 0.273 0.434 0.223c0.134 0.090-0.005 0.294-0.142 0.378s-0.295 0.261-0.182 0.376c0.030 0.030 0.071 0.044 0.102 0.071 0.118 0.102 0.030 0.303-0.098 0.391s-0.294 0.132-0.386 0.258c-0.069 0.094-0.082 0.216-0.113 0.329-0.123 0.447-0.543 0.754-0.978 0.918-0.112 0.042-0.23 0.080-0.314 0.165s-0.116 0.235-0.034 0.322c0.033 0.034 0.078 0.054 0.118 0.082 0.196 0.142 0.136 0.478-0.060 0.619s-0.462 0.136-0.699 0.092c-0.238-0.044-0.475-0.119-0.716-0.097-0.047 0.004-0.097 0.014-0.134 0.045-0.098 0.083-0.019 0.262 0.105 0.298s0.254-0.018 0.371-0.072c-0.046 0.292 0.338 0.45 0.634 0.45s0.661-0.018 0.808 0.239c0.098 0.172 0.048 0.404 0.162 0.566 0.171 0.242 0.575 0.162 0.791 0.364 0.405 0.38-0.274 1.184 0.12 1.574 0.135 0.134 0.346 0.15 0.507 0.251 0.178 0.111 0.281 0.316 0.45 0.441s0.485 0.1 0.512-0.11c0.008-0.059-0.011-0.119-0.012-0.179-0.003-0.308 0.409-0.41 0.717-0.41s0.719-0.086 0.733-0.393c0.142 0.009 0.29 0.016 0.419-0.042s0.232-0.203 0.191-0.339c-0.039-0.132-0.189-0.197-0.324-0.222-0.277-0.052-0.569-0.014-0.837-0.098s-0.513-0.372-0.403-0.632c0.271-0.036 0.58 0.139 0.802-0.021 0.077-0.056 0.124-0.142 0.185-0.216 0.31-0.375 1.010-0.282 1.21 0.162 0.104 0.23 0.080 0.498 0.157 0.738 0.138 0.434 0.634 0.721 1.078 0.622 0.049-0.010 0.099-0.027 0.132-0.064 0.049-0.055 0.045-0.138 0.038-0.212-0.042-0.449-0.118-0.958-0.494-1.207-0.381-0.252-1-0.185-1.187-0.601-0.056-0.126-0.054-0.269-0.088-0.402-0.114-0.455-0.706-0.714-1.118-0.49-0.163-0.208 0.025-0.538 0.279-0.611s0.522 0.023 0.769 0.119c0.332 0.129 0.664 0.258 0.996 0.386 0.188 0.073 0.458 0.116 0.542-0.067 0.166 0.062 0.332 0.125 0.498 0.187-0.051-0.281 0.127-0.586 0.398-0.678 0.266-0.091 0.63-0.021 0.774-0.263 0.143-0.25-0.114-0.545-0.363-0.689zM-3.367 6.024c-0.066 0.079-0.151 0.139-0.221 0.214-0.028 0.030-0.055 0.070-0.045 0.11 0.008 0.031 0.036 0.052 0.056 0.078 0.054 0.071 0.035 0.177-0.015 0.251s-0.125 0.128-0.19 0.19c-0.157 0.15-0.257 0.358-0.275 0.574-0.014 0.164 0.015 0.337-0.050 0.487-0.082 0.19-0.304 0.315-0.322 0.522-0.008 0.090 0.026 0.178 0.058 0.262 0.111 0.294 0.185 0.674-0.050 0.885-0.058 0.052-0.146 0.088-0.214 0.049-0.101-0.058-0.071-0.208-0.028-0.316-0.117-0.092-0.262 0.073-0.406 0.114-0.11 0.033-0.24-0.023-0.293-0.126-0.118-0.232 0.184-0.434 0.32-0.57 0.034-0.034 0.069-0.070 0.079-0.117 0.024-0.106-0.089-0.192-0.19-0.23s-0.224-0.073-0.265-0.174c-0.054-0.134 0.078-0.269 0.206-0.337s0.282-0.135 0.316-0.276c0.021-0.086-0.005-0.194 0.063-0.25s0.182-0.013 0.255-0.063c0.060-0.040 0.069-0.123 0.074-0.195 0.024-0.304 0.137-0.65 0.425-0.751 0.077-0.027 0.17-0.042 0.207-0.114 0.031-0.061 0.006-0.138 0.038-0.199 0.022-0.044 0.070-0.070 0.114-0.092 0.142-0.071 0.282-0.142 0.424-0.213 0.036 0.098-0.007 0.207-0.072 0.287zM-0.533 4.472c-0.132 0.049-0.282 0.034-0.411 0.090-0.019 0.008-0.038 0.018-0.052 0.035-0.029 0.035-0.022 0.086-0.014 0.131 0.055 0.38-0.045 0.763-0.143 1.134-0.033 0.122-0.072 0.254-0.176 0.326s-0.288 0.027-0.296-0.099c-0.004-0.059 0.031-0.114 0.072-0.156 0.119-0.124 0.315-0.218 0.308-0.39-0.006-0.154-0.186-0.261-0.186-0.415-0.001-0.17 0.213-0.277 0.222-0.446 0.010-0.186-0.23-0.283-0.414-0.253s-0.357 0.133-0.542 0.118c0.106-0.103 0.194-0.224 0.262-0.355-0.118-0.034-0.234 0.046-0.348 0.090s-0.287 0.022-0.301-0.101c-0.012-0.106 0.117-0.175 0.224-0.174s0.216 0.040 0.318 0.010c0.088-0.026 0.154-0.096 0.223-0.155 0.161-0.136 0.358-0.221 0.551-0.303-0.019-0.173-0.392-0.118-0.382-0.292 0.003-0.049 0.042-0.087 0.081-0.116 0.242-0.183 0.407-0.091 0.66-0.118 0.238-0.025 0.136-0.258 0.314-0.361 0.048-0.027 0.106-0.026 0.161-0.031 0.198-0.017 0.377-0.118 0.562-0.189s0.404-0.11 0.574-0.008c0.006 0.066-0.083 0.088-0.149 0.091-0.501 0.022-0.951 0.317-1.311 0.665-0.105 0.101-0.208 0.27-0.11 0.378 0.062 0.068 0.19 0.088 0.197 0.18-0.056 0.040-0.112 0.080-0.168 0.119-0.049 0.082 0.057 0.175 0.152 0.19s0.206 0.005 0.27 0.076c0.093 0.106-0.016 0.279-0.148 0.328zM-0.656 10.928c-0.033 0.080-0.024 0.17-0.030 0.258s-0.033 0.182-0.109 0.225c-0.073 0.041-0.186 0.034-0.212 0.113-0.006 0.019-0.006 0.040-0.004 0.060 0.005 0.081 0.010 0.162 0.014 0.243-0.177-0.020-0.379-0.031-0.506 0.094-0.029 0.028-0.059 0.066-0.099 0.061-0.053-0.006-0.068-0.078-0.051-0.128 0.028-0.083 0.101-0.142 0.174-0.19 0.12-0.078 0.254-0.157 0.248-0.318-0.007-0.202-0.14-0.135 0.029-0.327 0.158-0.179 0.192-0.267 0.25-0.501 0.038-0.154 0.134-0.369 0.345-0.272 0.326 0.149 0.022 0.507-0.050 0.683zM0.304 5.893c0.019-0.007 0.041 0 0.060 0.007 0.186 0.065 0.388 0.087 0.584 0.066-0.008-0.069-0.090-0.097-0.158-0.114s-0.149-0.054-0.145-0.123c0.004-0.080 0.112-0.102 0.192-0.099 0.156 0.005 0.312 0.010 0.468 0.014 0.098 0.003 0.358 0.186 0.403 0.014 0.020-0.079-0.030-0.195 0.046-0.224 0.039-0.015 0.083 0.016 0.098 0.054s0.010 0.082 0.005 0.123c-0.026 0.187-0.075 0.407-0.25 0.478 0.025 0.050-0.008 0.112-0.052 0.148s-0.098 0.058-0.138 0.098c-0.059 0.058-0.081 0.15-0.149 0.198-0.062 0.043-0.143 0.038-0.218 0.042s-0.161 0.028-0.19 0.098c-0.013 0.032-0.011 0.068-0.009 0.102 0.008 0.129 0.016 0.258 0.024 0.387 0.002 0.030-0.001 0.069-0.030 0.080-0.010 0.004-0.022 0.003-0.032 0.002-0.145-0.026-0.185-0.21-0.212-0.354-0.030-0.16-0.082-0.315-0.157-0.46s-0.171-0.286-0.18-0.449c-0.001-0.035 0.006-0.077 0.038-0.088zM1.446 14.425c0.041-0.022 0.090-0.022 0.135-0.022 0.134 0 0.266 0.007 0.399 0.022 0.028 0.003 0.060 0.010 0.072 0.034 0.022 0.046-0.045 0.082-0.095 0.091-0.11 0.018-0.22 0.036-0.33 0.054 0.044 0.089-0.054 0.181-0.142 0.226-0.128 0.065-0.265 0.111-0.406 0.138-0.088 0.017-0.179 0.026-0.261 0.063s-0.156 0.108-0.166 0.197c-0.007 0.069 0.008 0.165-0.058 0.183-0.022 0.006-0.045-0.001-0.066-0.009-0.090-0.035-0.168-0.1-0.218-0.182-0.086-0.139-0.1-0.332-0.238-0.421-0.069-0.045-0.161-0.057-0.209-0.123-0.116-0.16 0.161-0.386 0.070-0.561-0.038-0.074-0.141-0.142-0.101-0.215 0.026-0.046 0.093-0.049 0.141-0.026 0.232 0.107 0.125 0.499 0.314 0.671 0.083 0.075 0.208 0.089 0.317 0.062 0.138-0.034 0.238-0.19 0.355-0.212 0.138-0.026 0.26 0.151 0.402 0.086 0.031-0.014 0.055-0.039 0.085-0.055zM1.899 10.824c-0.186 0.153-0.383 0.311-0.62 0.359-0.118 0.024-0.256 0.027-0.333 0.12-0.038 0.046-0.054 0.107-0.067 0.166-0.023 0.098-0.046 0.195-0.069 0.293-0.050 0.025-0.11-0.010-0.142-0.055-0.137-0.19 0.029-0.461-0.031-0.687-0.006-0.026-0.016-0.052-0.011-0.078 0.006-0.030 0.030-0.053 0.053-0.074 0.054-0.049 0.11-0.098 0.164-0.147-0.134-0.043-0.274-0.069-0.414-0.075-0.052-0.002-0.108-0.003-0.15-0.034s-0.059-0.102-0.017-0.133c0.018-0.014 0.042-0.015 0.065-0.017 0.323-0.018 0.64 0.054 0.958 0.101 0.265 0.040 0.502-0.010 0.765-0.006 0.022 0.112-0.066 0.197-0.15 0.266zM4.787 9.103c0.086 0.259 0.353 0.802 0.052 1.017-0.062 0.045-0.142 0.059-0.212 0.089s-0.142 0.086-0.145 0.163c-0.004 0.088 0.079 0.179 0.034 0.254-0.020 0.033-0.058 0.048-0.094 0.060-0.346 0.114-0.737 0.082-1.058-0.089-0.098-0.052-0.202-0.157-0.155-0.257 0.040-0.084 0.159-0.094 0.223-0.162 0.078-0.082 0.047-0.222-0.019-0.314s-0.162-0.162-0.221-0.26c-0.058-0.098-0.062-0.246 0.034-0.306 0.087-0.054 0.198-0.007 0.294 0.024s0.232 0.030 0.27-0.064c0.022-0.055 0.011-0.139 0.069-0.154 0.032-0.009 0.063 0.014 0.095 0.026 0.11 0.039 0.215-0.066 0.286-0.158 0.219-0.289 0.438-0.578 0.658-0.866 0.206 0.184-0.034 0.357-0.108 0.521-0.074 0.162-0.055 0.318-0.003 0.477z"></path>
<path fill="#000" d="M9.316 8.323c-0.064-0.606-0.244-1.277-0.773-1.581-0.006 0.069-0.052 0.132-0.115 0.16-0.194 0.007-0.322-0.198-0.382-0.382s-0.109-0.398-0.276-0.494c-0.098-0.057-0.221-0.060-0.321-0.115s-0.162-0.21-0.070-0.278c0.038-0.028 0.089-0.030 0.137-0.033 0.142-0.010 0.292-0.053 0.385-0.161s0.102-0.295-0.010-0.383c-0.207-0.162-0.466-0.031-0.668-0.268-0.138-0.162-0.17-0.367-0.236-0.562-0.046-0.136-0.070-0.278-0.219-0.333-0.204-0.074-0.464 0.108-0.416 0.326-0.221 0.036-0.392-0.177-0.526-0.322-0.23-0.249-0.515-0.447-0.829-0.578-0.058-0.024-0.122-0.046-0.183-0.034-0.054 0.011-0.098 0.047-0.146 0.074-0.24 0.129-0.529-0.005-0.788-0.091s-0.623-0.075-0.712 0.182c0.61 0.156 1.219 0.311 1.829 0.467 0.166 0.042 0.336 0.086 0.479 0.181-0.457 0.201-0.99 0.224-1.462 0.063-0.134-0.046-0.27-0.106-0.411-0.098s-0.29 0.12-0.278 0.262c0.222 0.063 0.442 0.127 0.664 0.19 0.138 0.039 0.31 0.179 0.214 0.286 0.181-0.027 0.334 0.158 0.353 0.339s-0.050 0.358-0.098 0.535c-0.046 0.176-0.066 0.379 0.040 0.528 0.028 0.039 0.066 0.074 0.114 0.088 0.155 0.044 0.262-0.145 0.334-0.289 0.194-0.392 0.577-0.685 1.006-0.771 0.106 0.019 0.205 0.085 0.262 0.176-0.2 0.139-0.394 0.287-0.581 0.444-0.048 0.041-0.101 0.094-0.091 0.156 0.010 0.067 0.084 0.101 0.147 0.124 0.297 0.106 0.594 0.211 0.891 0.317 0.053 0.018 0.109 0.040 0.14 0.086 0.056 0.083 0.002 0.198-0.070 0.267s-0.163 0.126-0.202 0.219c-0.072 0.172 0.086 0.362 0.261 0.428s0.37 0.058 0.546 0.119c0.176 0.062 0.34 0.244 0.278 0.42-0.019 0.054-0.058 0.109-0.039 0.163 0.022 0.062 0.106 0.076 0.147 0.128 0.064 0.082-0.014 0.202-0.101 0.26s-0.198 0.107-0.224 0.208c-0.037 0.142 0.112 0.254 0.233 0.336 0.26 0.178 0.492 0.518 0.332 0.789-0.068 0.115-0.198 0.194-0.237 0.322-0.109 0.356 0.549 0.623 0.419 0.972-0.060 0.162-0.255 0.216-0.391 0.322-0.207 0.162-0.271 0.442-0.319 0.701-0.035 0.19-0.066 0.399 0.027 0.569s0.37 0.241 0.479 0.081c0.1-0.146-0.006-0.363 0.083-0.516 0.061-0.106 0.197-0.148 0.265-0.25 0.056-0.084 0.057-0.192 0.094-0.286 0.113-0.282 0.51-0.343 0.659-0.608 0.115-0.204 0.044-0.465-0.075-0.667s-0.282-0.38-0.366-0.598c-0.083-0.219-0.056-0.509 0.143-0.632 0.119-0.074 0.272-0.071 0.396-0.136 0.269-0.142 0.29-0.517 0.258-0.822zM6.665 4.612c-0.006 0.016-0.024 0.025-0.040 0.031-0.077 0.030-0.162 0.042-0.243 0.034 0.058 0.086 0.102 0.182 0.134 0.281-0.31-0.046-0.625-0.001-0.934 0.045-0.087 0.013-0.178 0.027-0.25 0.079-0.068 0.050-0.109 0.127-0.167 0.188s-0.153 0.103-0.225 0.061c-0.026-0.102 0.068-0.19 0.142-0.266s0.134-0.208 0.052-0.275c-0.039-0.032-0.094-0.033-0.145-0.029s-0.104 0.011-0.15-0.012c-0.046-0.022-0.073-0.088-0.038-0.125 0.016-0.017 0.041-0.023 0.065-0.026 0.044-0.006 0.088-0.006 0.133-0.006 0.152 0 0.67 0.086 0.786-0.002 0.21-0.158-0.29-0.151-0.209-0.338 0.029-0.066 0.128-0.063 0.185-0.020s0.090 0.11 0.141 0.161c0.174 0.171 0.466 0.082 0.701 0.146 0.034 0.010 0.075 0.039 0.062 0.073zM9.086 8.294c-0.057 0.104-0.142 0.151-0.186 0.263-0.034 0.088 0.010 0.189-0.060 0.269-0.119 0.138-0.382-0.015-0.517 0.108-0.055 0.050-0.074 0.138-0.142 0.17-0.070 0.033-0.158-0.020-0.182-0.093s0-0.155 0.042-0.22c0.107-0.166 0.305-0.246 0.49-0.318 0.055-0.022 0.115-0.047 0.143-0.099 0.043-0.079-0.011-0.181-0.086-0.23s-0.166-0.067-0.249-0.104c-0.074-0.033-0.15-0.114-0.111-0.186 0.042-0.079 0.198-0.086 0.186-0.175-0.015-0.11-0.168-0.172-0.048-0.296 0.098-0.101 0.221-0.012 0.318 0.040 0.152 0.081 0.33 0.187 0.412 0.346 0.079 0.152 0.074 0.374-0.009 0.526z"></path>
<path fill="#000" d="M4.466 1.925c0.137 0.068 0.294 0.121 0.377 0.249 0.033 0.050 0.052 0.11 0.086 0.159s0.081 0.086 0.128 0.122c0.182 0.142 0.364 0.285 0.546 0.426 0.102 0.079 0.214 0.163 0.344 0.161 0.086-0.002 0.17-0.042 0.256-0.035 0.168 0.012 0.326 0.195 0.475 0.118 0.078-0.085 0.023-0.248-0.090-0.27-0.24-0.046-0.186-0.27-0.44-0.332-0.29-0.070-0.508-0.049-0.732-0.302-0.082-0.093-0.146-0.202-0.238-0.287-0.168-0.157-0.406-0.21-0.633-0.25-0.074-0.013-0.172-0.014-0.202 0.056-0.032 0.074 0.049 0.147 0.122 0.184z"></path>
<path fill="#000" opacity="0.25" d="M2.995 2.994c1.384 1.794 0.81 4.557-1.283 6.171s-4.91 1.469-6.294-0.325c-1.384-1.794-0.81-4.557 1.283-6.171s4.91-1.469 6.294 0.325z"></path>
<path fill="#fff" opacity="0.25" d="M0.684 7.831c1.663-1.283 2.12-3.479 1.020-4.905s-3.34-1.541-5.003-0.258c-1.663 1.283-2.12 3.479-1.020 4.905s3.34 1.541 5.003 0.258z"></path>
</svg>
