<svg aria-hidden="true" style="position: absolute; width: 0; height: 0; overflow: hidden;" version="1.1" xmlns="http://www.w3.org/2000/svg" xmlns:xlink="http://www.w3.org/1999/xlink">
<defs>
<symbol id="icon-Earch" viewBox="0 0 32 32">
<path fill="#4880C8"  d="M15.874 31.699c8.739 0 15.824-7.085 15.824-15.824s-7.085-15.824-15.824-15.824c-8.739 0-15.824 7.085-15.824 15.824s7.085 15.824 15.824 15.824z"></path>
<path fill="#C7D53D"  d="M28.336 16.973c-0.596 0.803 0.414 2.027-0.050 2.911-0.301 0.565-1.073 0.709-1.449 1.23-0.439 0.59-0.207 1.424-0.333 2.146-0.213 1.255-1.474 2.152-1.613 3.413-0.050 0.445 0.050 0.904-0.031 1.343-0.082 0.445-0.458 0.891-0.904 0.816 0.27-0.609 0.276-1.324 0.025-1.939-0.138-0.333-0.351-0.64-0.427-0.991-0.1-0.458 0.044-0.929 0.025-1.393-0.025-0.496-0.232-0.966-0.433-1.424-0.383-0.86-0.91-1.832-1.845-1.983-0.515-0.082-1.142 0.088-1.5-0.295-0.195-0.207-0.238-0.527-0.439-0.722-0.232-0.22-0.584-0.226-0.866-0.37-0.527-0.276-0.653-0.96-0.728-1.55-0.025-0.238-0.050-0.496 0.050-0.715 0.094-0.195 0.295-0.345 0.339-0.565 0.094-0.508-0.709-1.054-0.326-1.405-0.144-0.207-0.477-0.107-0.653 0.069-0.176 0.182-0.282 0.427-0.496 0.558-0.188 0.113-0.42 0.113-0.64 0.088-0.527-0.063-1.029-0.27-1.456-0.584-0.276-0.207-0.615-0.471-0.922-0.32-0.126 0.056-0.213 0.176-0.339 0.22-0.326 0.113-0.627-0.27-0.973-0.27-0.194 0-0.364 0.126-0.533 0.22-0.973 0.533-2.215 0.138-3.118-0.508s-1.631-1.525-2.585-2.096c0.307 0.772 0.791 1.474 1.412 2.039-0.809 0.132-1.424-0.696-1.807-1.424-0.439-0.847-0.841-1.707-1.198-2.591-0.207-0.508-0.408-1.073-0.238-1.594 0.138-0.427 0.489-0.916 0.188-1.249-0.107-0.113-0.27-0.169-0.364-0.289-0.307-0.395-0.201-1.023-0.546-1.468-0.044-0.056-0.094-0.107-0.144-0.157 2.359-3.012 5.791-5.151 9.725-5.835 0.427 0.107 0.841 0.276 1.211 0.508 0.257 0.157 0.502 0.351 0.609 0.627s0.019 0.646-0.257 0.759c-0.151 0.063-0.314 0.044-0.477 0.019-1.305-0.182-2.61-0.358-3.922-0.54 0.816 0.207 1.631 0.42 2.447 0.627-0.558 0.74-1.7 0.577-2.591 0.339 0.333 0.32-0.088 0.86-0.502 1.067s-0.947 0.502-0.847 0.96c0.885-0.082 1.763-0.163 2.648-0.245-0.157-0.402-0.307-0.809-0.458-1.211 0.891-0.282 1.939-0.006 2.573 0.684-0.201-0.364-0.402-0.722-0.602-1.079 0.728 0.182 1.456 0.364 2.19 0.546 0.22 0.056 0.458 0.119 0.609 0.289 0.326 0.364 0.069 0.96-0.295 1.286-0.364 0.333-0.835 0.577-1.029 1.029-0.295 0.696 0.232 1.531-0.044 2.24-0.126 0.326-0.414 0.59-0.464 0.941-0.113 0.809 1.092 1.33 1.023 2.146-0.32 0.232-0.759-0.031-1.023-0.32s-0.565-0.646-0.954-0.609c-0.552 0.050-0.734 0.828-1.236 1.060-0.351 0.169-0.835 0.056-1.092 0.345-0.113 0.126-0.157 0.307-0.176 0.471-0.075 0.565 0.006 1.198 0.414 1.594s1.205 0.389 1.462-0.119c0.107-0.22 0.107-0.496 0.257-0.684 0.238-0.307 0.765-0.238 1.004 0.069 0.245 0.301 0.245 0.734 0.138 1.104 0.458-0.138 0.966-0.282 1.412-0.094s0.678 0.872 0.289 1.161c1.098 0.257 2.334-0.207 2.993-1.129 0.188-0.264 0.345-0.577 0.615-0.759 0.22-0.151 0.496-0.201 0.759-0.251 0.709-0.132 1.412-0.257 2.121-0.389 0.245-0.044 0.496-0.088 0.734-0.019 0.295 0.082 0.521 0.32 0.797 0.452 0.364 0.176 0.784 0.157 1.192 0.157 0.91-0.006 1.82 0.088 2.711 0.282 0.245 0.050 0.489 0.113 0.69 0.264 0.282 0.213 0.42 0.558 0.552 0.891 0.232 0.602 0.445 1.343 0.050 1.857-0.113 0.132-0.245 0.232-0.339 0.358z"></path>
<path fill="#C7D53D"  d="M14.325 11.897c-0.1 0.013-0.22 0.056-0.226 0.157-0.006 0.113 0.151 0.157 0.264 0.157 0.552 0.006 1.111 0.006 1.663 0.013 0.584 0.006 0.427-0.326-0.025-0.408-0.514-0.1-1.155 0.006-1.675 0.082z"></path>
<path fill="#C7D53D"  d="M17.838 11.627c0.125 0.113 0.119 0.395-0.163 0.508-0.307 0.126-0.483-0.088-0.264-0.358 0.169-0.226 0.333-0.232 0.427-0.151z"></path>
<path fill="#7C878D"  opacity="0.2" d="M31.749 15.875c0 8.74-7.084 15.824-15.824 15.824-0.383 0-0.765-0.013-1.142-0.038-4.587-0.326-8.634-2.61-11.313-6.017 4.329-0.107 9.481-1.681 14.4-4.693 5.911-3.627 10.127-8.496 11.752-12.995 0.358 0.621 0.678 1.261 0.947 1.933 0.765 1.838 1.18 3.865 1.18 5.986z"></path>
<path fill="#7C878D"  opacity="0.2" d="M31.749 15.874c0 8.74-7.084 15.824-15.824 15.824-0.383 0-0.765-0.013-1.142-0.038 2.184-1.205 4.373-2.755 6.444-4.624 5.98-5.402 9.399-12.034 9.349-17.154 0.759 1.845 1.173 3.871 1.173 5.992z"></path>
<path fill="#FFFFFF"  opacity="0.2" d="M18.704 4.562c2.635 3.413 1.537 8.671-2.441 11.74-3.978 3.075-9.343 2.792-11.978-0.621s-1.537-8.671 2.441-11.74c3.984-3.068 9.343-2.792 11.978 0.621z"></path>
<path fill="#FFFFFF"  opacity="0.08" d="M16.245 4.43c2.096 2.711 1.224 6.889-1.939 9.336-3.162 2.441-7.429 2.221-9.518-0.489-2.096-2.711-1.224-6.889 1.939-9.336s7.429-2.221 9.518 0.489z"></path>
</symbol>

<symbol id="icon-Jupiter" viewBox="0 0 32 32">
<path fill="#F2CD69" d="M16.034 31.912c8.649 0 15.66-7.011 15.66-15.66s-7.011-15.66-15.66-15.66c-8.649 0-15.66 7.011-15.66 15.66s7.011 15.66 15.66 15.66z"></path>
<path fill="#f2d994" d="M28.779 7.156c-0.334 0.286-0.715 0.538-1.083 0.749-7.149 4.228-15.367 6.223-23.442 8.17-1.273 0.306-2.567 0.613-3.867 0.769-0.048-1.198 0.048-2.39 0.272-3.547 1.906-0.654 4.18-0.953 5.093-1.219 3.99-1.151 7.911-2.526 11.751-4.119 2.138-0.892 4.249-1.845 6.325-2.866 0.681-0.34 1.369-0.681 2.043-1.021 1.096 0.885 2.077 1.913 2.907 3.084z"></path>
<path fill="#f2d994" opacity="0.48" d="M30.271 9.736c-8.279 4.827-17.757 7.135-27.084 9.375-0.81 0.197-1.62 0.395-2.437 0.558-0.32-1.409-0.436-2.826-0.361-4.208 1.838-0.483 3.69-0.756 4.541-1.001 4.65-1.341 9.232-2.948 13.699-4.807 2.492-1.035 4.95-2.152 7.374-3.343 0.497-0.245 0.987-0.49 1.477-0.735 1.137 1.205 2.083 2.601 2.791 4.16z"></path>
<path fill="#f2d994" opacity="0.48" d="M31.694 16.626c-0.054 2.267-0.599 4.46-1.566 6.448-6.802 3.234-14.223 5.14-21.59 6.924-1.566-0.851-2.989-1.974-4.187-3.323 1.784-0.463 3.554-0.722 4.378-0.96 4.65-1.341 9.232-2.948 13.699-4.807 2.492-1.035 4.95-2.151 7.38-3.343 0.626-0.306 1.26-0.62 1.886-0.94z"></path>
<path fill="#ca863f" d="M31.128 12.078c0.306 1.11 0.49 2.226 0.545 3.336-0.449 0.286-0.926 0.531-1.403 0.769-5.113 2.54-10.628 4.146-16.109 5.74-2.274 0.66-4.548 1.328-6.877 1.729-1.586 0.272-3.186 0.429-4.793 0.463-0.66-1.13-1.185-2.369-1.546-3.69-0.014-0.054-0.034-0.109-0.041-0.17 1.6-0.041 3.2-0.191 4.78-0.436 3.438-0.524 6.809-1.464 10.090-2.614 5.113-1.791 10.022-4.092 15.020-6.196 0.116 0.354 0.232 0.708 0.334 1.069z"></path>
<path fill="#f2d994" d="M31.414 19.186c-0.272 1.437-0.749 2.826-1.403 4.126-6.992 2.962-14.312 5.154-21.78 6.523-1.403-0.803-2.676-1.825-3.779-3.030 0.701-0.306 1.409-0.511 1.866-0.579 1.171-0.17 2.356 0.109 3.534 0.088 0.858-0.020 1.702-0.204 2.54-0.381 1.226-0.266 2.458-0.531 3.69-0.803 2.764-0.599 5.535-1.198 8.211-2.131 1.974-0.688 3.901-1.559 5.603-2.771 0.49-0.347 0.994-0.735 1.518-1.042z"></path>
<path fill="#c6853f" opacity="0.26" d="M20.82 2.444c-2.335 2.165-5.372 3.37-8.334 4.528-3.663 1.43-7.483 3.152-11.363 4.521 0.238-0.742 0.531-1.471 0.878-2.172 6.352-2.022 12.596-4.453 18.819-6.877z"></path>
<path fill="#c6853f" opacity="0.26" d="M21.889 27.915c-0.538 1.137-1.784 1.743-2.934 2.254-1.28 0.572-2.56 1.144-3.84 1.716-1.266-0.075-2.512-0.306-3.704-0.674 0.885-0.245 1.763-0.477 2.567-0.735 1.369-0.449 2.744-0.899 4.112-1.348 0.558-0.177 3.574-0.735 3.799-1.212z"></path>
<path fill="#f1c857" d="M23.428 23.585c0.218 0.776-0.851 1.757-2.39 2.179-1.532 0.422-2.955 0.136-3.173-0.64s0.851-1.757 2.39-2.179c1.539-0.429 2.955-0.143 3.173 0.64z"></path>
<path fill="#ca863f" d="M20.364 6.141c0.293 0.293 0.395 0.674 0.218 0.851s-0.558 0.082-0.851-0.204c-0.3-0.293-0.395-0.674-0.218-0.851 0.17-0.177 0.552-0.089 0.851 0.204z"></path>
<path fill="#f6df9e" d="M8.599 15.666c0.014 0.599-0.272 1.089-0.626 1.096-0.361 0.007-0.66-0.47-0.667-1.069-0.014-0.599 0.272-1.089 0.626-1.096 0.361-0.007 0.66 0.47 0.667 1.069z"></path>
<path fill="#f6df9e" d="M29.106 18.451c0.007 0.402-0.184 0.735-0.422 0.735-0.238 0.007-0.443-0.32-0.449-0.722s0.184-0.735 0.422-0.735c0.238-0.007 0.443 0.32 0.449 0.722z"></path>
<path fill="#f6df9e" d="M8.905 5.849c0.007 0.402-0.184 0.735-0.422 0.735-0.238 0.007-0.443-0.32-0.449-0.722s0.184-0.735 0.422-0.735c0.245 0 0.443 0.32 0.449 0.722z"></path>
<path fill="#ca863f" d="M12.010 29.093c0.15 0.143 0.197 0.334 0.109 0.422s-0.279 0.041-0.429-0.102c-0.15-0.143-0.197-0.334-0.109-0.422s0.279-0.041 0.429 0.102z"></path>
<path fill="#ab7335" d="M17.866 19.418c0.007 0.402-0.184 0.735-0.422 0.735-0.238 0.007-0.443-0.32-0.449-0.722s0.184-0.735 0.422-0.735c0.238 0 0.443 0.32 0.449 0.722z"></path>
<path fill="#7c878d" opacity="0.10" d="M31.115 12.044c2.301 8.327-2.58 16.94-10.907 19.241-0.368 0.102-0.735 0.191-1.096 0.266-4.453 0.899-8.912-0.211-12.357-2.751 4.099-1.239 8.586-4.099 12.473-8.266 4.677-5.011 7.408-10.757 7.768-15.476 0.504 0.497 0.98 1.028 1.416 1.586 1.212 1.559 2.145 3.377 2.703 5.399z"></path>
<path fill="#7c878d" opacity="0.10" d="M31.115 12.044c2.301 8.327-2.581 16.94-10.907 19.241-0.368 0.102-0.735 0.191-1.096 0.266 1.763-1.723 3.438-3.772 4.916-6.1 4.276-6.72 5.78-13.937 4.385-18.805 1.212 1.559 2.145 3.377 2.703 5.399z"></path>
<path fill="#fff" opacity="0.10" d="M12.916 5.658c2.642 1.981 2.914 6.094 0.599 9.178s-6.339 3.976-8.98 1.995c-2.642-1.981-2.914-6.094-0.599-9.178s6.339-3.976 8.98-1.995z"></path>
<path fill="#000" opacity="0.05" d="M15.231 5.147c3.329 2.499 3.663 7.666 0.749 11.547s-7.973 5.004-11.295 2.506c-3.323-2.499-3.663-7.666-0.749-11.547s7.973-5.004 11.295-2.505z"></path>
</symbol>   

<symbol id="icon-Mars" viewBox="0 0 32 32">
<path fill="#8b2200" d="M28.361 18.947c1.653-6.949-2.641-13.922-9.59-15.575s-13.922 2.641-15.575 9.59c-1.653 6.949 2.641 13.922 9.59 15.575s13.922-2.641 15.575-9.59z"></path>
<path fill="#6d1a00" d="M22.384 21.846c0.070 0.515-0.468 0.921-0.976 1.015-0.515 0.094-1.046-0.008-1.553 0.117s-0.999 0.617-0.827 1.108c0.258 0.765 1.678 0.593 1.865 1.381-0.601 0.398-0.531 1.303-0.25 1.959 0.062 0.148 0.133 0.297 0.203 0.445-1.561 0.663-3.278 1.038-5.081 1.038-3.036 0-5.838-1.046-8.047-2.81 0.656-0.5 1.116-1.225 1.163-2.045 0.016-0.219 0.016-0.484 0.203-0.609 0.109-0.078 0.258-0.078 0.39-0.070 1.171 0.039 2.341 0.078 3.512 0.117 0.258 0.008 0.531 0.016 0.765-0.101 0.499-0.242 0.601-0.882 0.718-1.421 0.265-1.233 0.976-2.427 2.092-3.013 1.124-0.585 2.661-0.414 3.45 0.578-0.429 0.172-0.343 0.866 0.031 1.139s0.866 0.281 1.327 0.375c0.445 0.078 0.952 0.336 1.015 0.796z"></path>
<path fill="#6d1a00" d="M27.34 12.941c-0.187 0.125-0.437 0.101-0.656 0.078-1.101-0.125-2.201-0.25-3.294-0.375-0.242-0.031-0.531-0.039-0.687 0.148-0.18 0.211-0.086 0.554-0.226 0.788-0.109 0.18-0.336 0.258-0.546 0.304-1.288 0.273-2.622-0.148-3.934-0.195-1.319-0.047-2.872 0.492-3.192 1.78-0.078 0.32-0.078 0.679-0.265 0.952-0.258 0.382-0.788 0.46-1.241 0.421-1.374-0.133-2.615-1.093-3.988-0.999-1.733 0.109-3.145 1.85-4.87 1.647-0.523-0.062-1.022-0.297-1.53-0.359-0.031-0.382-0.055-0.773-0.055-1.171 0-1.374 0.219-2.7 0.617-3.941 0.796-0.578 1.678-1.015 2.716-1.155 1.561-0.211 3.231 0.328 4.691-0.258 1.147-0.46 1.92-1.514 2.864-2.31s2.373-1.335 3.372-0.617c0.531 0.375 0.835 1.054 1.444 1.288 0.64 0.258 1.35-0.078 2.006-0.289s1.538-0.226 1.873 0.382c0.14 0.258 0.148 0.585 0.312 0.835 0.414 0.609 1.335 0.312 2.068 0.242 1.179-0.117 2.381 0.679 2.739 1.803 0.086 0.351 0.086 0.804-0.219 0.999z"></path>
<path fill="#6d1a00" d="M24.991 6.9c-0.359-0.109-0.718-0.203-1.077-0.265-1.015-0.172-2.107-0.117-2.989-0.64-0.741-0.445-1.225-1.249-2.006-1.639-0.695-0.343-1.53-0.312-2.201-0.687-0.211-0.117-0.429-0.343-0.617-0.624 3.473 0.078 6.619 1.545 8.89 3.856z"></path>
<path fill="#6d1a00" d="M28.379 18.841c-0.773 3.403-2.88 6.291-5.752 8.086-0.031-0.195-0.047-0.39-0.031-0.585 0.031-0.617 0.273-1.194 0.57-1.709 0.336-0.57 0.734-1.077 1.14-1.584 0.476-0.601 0.952-1.194 1.428-1.795 0.367-0.468 0.741-0.929 1.171-1.327 0.367-0.336 0.937-0.866 1.475-1.085z"></path>
<path fill="#a12800" d="M13.12 7.204c-1.311 0.952-2.911 1.413-4.48 1.858-1.498 0.421-2.966 0.882-4.472 1.186 1.116-2.263 2.872-4.144 5.034-5.424 1.272 0.086 2.529 0.086 3.653-0.468 0.375-0.187 0.812-0.437 1.186-0.242 0.226 0.117 0.359 0.375 0.406 0.624 0.195 0.968-0.531 1.889-1.327 2.466z"></path>
<path fill="#a12800" d="M28.699 15.961c0 0.367-0.016 0.726-0.047 1.085-0.656 0.008-1.311-0.031-1.959-0.14-0.523-0.086-1.046-0.211-1.577-0.18-0.96 0.047-1.858 0.593-2.825 0.546-0.125-0.008-0.25-0.023-0.351-0.102-0.289-0.219-0.109-0.687 0.156-0.937 0.944-0.89 2.404-0.788 3.7-0.78 0.952 0.008 1.928-0.055 2.88-0.203 0.016 0.234 0.023 0.468 0.023 0.71z"></path>
<path fill="#a12800" d="M11.98 19.34c0.008 0.148-0.125 0.258-0.25 0.343-1.397 0.937-3.458 0.695-4.605 1.928-0.211 0.226-0.382 0.492-0.617 0.695-0.46 0.39-1.077 0.468-1.686 0.554-0.297-0.46-0.554-0.944-0.788-1.444 1.928-0.492 3.169-1.233 4.917-2.201 0.851-0.468 1.951-0.71 2.771-0.203 0.14 0.086 0.258 0.195 0.258 0.328z"></path>
<path fill="#b62e1c" d="M6.97 16.632c-0.25-0.507-0.117-1.093 0.304-1.296 0.421-0.211 0.96 0.039 1.218 0.546 0.25 0.507 0.117 1.093-0.304 1.296-0.421 0.211-0.968-0.031-1.218-0.546z"></path>
<path fill="#581600" d="M11.84 5.479c0.101-0.421 0.468-0.695 0.812-0.609s0.539 0.5 0.437 0.913c-0.101 0.421-0.468 0.695-0.812 0.609-0.343-0.078-0.539-0.492-0.437-0.913z"></path>
<path fill="#581600" d="M12.496 14.736c0.101-0.421 0.468-0.695 0.812-0.609s0.539 0.499 0.437 0.913c-0.101 0.421-0.468 0.695-0.812 0.609-0.343-0.078-0.539-0.492-0.437-0.913z"></path>
<path fill="#581600" d="M24.859 19.824c0.101-0.421 0.468-0.695 0.812-0.609s0.539 0.5 0.437 0.913c-0.101 0.421-0.468 0.695-0.812 0.609s-0.539-0.492-0.437-0.913z"></path>
<path fill="#581600" d="M18.029 24.749c0.156-0.632 0.71-1.046 1.233-0.913s0.82 0.749 0.663 1.381c-0.156 0.632-0.71 1.046-1.233 0.913-0.523-0.125-0.82-0.749-0.663-1.381z"></path>
<path fill="#b62e1c" d="M25.179 13.11c0.463-0.463 0.53-1.148 0.149-1.529s-1.065-0.314-1.529 0.149c-0.463 0.463-0.53 1.148-0.149 1.529s1.065 0.314 1.529-0.149z"></path>
<path fill="#b62e1c" d="M11.536 25.811c-0.32-0.382-0.328-0.905-0.016-1.171s0.827-0.172 1.155 0.203c0.32 0.382 0.328 0.905 0.016 1.171s-0.835 0.172-1.155-0.203z"></path>
<path fill="#000" opacity="0.10" d="M17.873 6.712c2.154 2.786 1.257 7.087-1.998 9.592-3.255 2.513-7.633 2.287-9.787-0.507-2.154-2.786-1.257-7.087 1.998-9.592s7.633-2.279 9.787 0.507z"></path>
<path fill="#fff" opacity="0.10" d="M15.867 6.611c1.709 2.217 0.999 5.627-1.584 7.625s-6.072 1.819-7.781-0.398c-1.709-2.217-0.999-5.627 1.584-7.625 2.591-1.998 6.072-1.819 7.781 0.398z"></path>
<path fill="#7c878d" opacity="0.35" d="M28.488 15.961c0 7.141-5.791 12.925-12.933 12.925-0.312 0-0.624-0.008-0.929-0.031-3.746-0.265-7.056-2.131-9.241-4.917 3.536-0.086 7.742-1.374 11.762-3.84 4.831-2.966 8.273-6.939 9.6-10.622 0.297 0.507 0.554 1.030 0.773 1.577 0.624 1.522 0.968 3.177 0.968 4.909z"></path>
<path fill="#7c878d" opacity="0.35" d="M28.488 15.961c0 7.141-5.791 12.925-12.933 12.925-0.312 0-0.624-0.008-0.929-0.031 1.779-0.983 3.575-2.248 5.261-3.777 4.886-4.418 7.68-9.834 7.641-14.018 0.617 1.514 0.96 3.169 0.96 4.901z"></path>
</symbol>

<symbol id="icon-Mercury" viewBox="0 0 32 32">
<path fill="#9CACB4" d="M16.083 31.858c8.594 0 15.561-6.967 15.561-15.561s-6.967-15.562-15.561-15.562c-8.594 0-15.561 6.967-15.561 15.562s6.967 15.561 15.561 15.561z"></path>
<path fill="#839196" d="M29.689 8.747c-0.296 0.107-0.616 0.178-0.913 0.237-1.055 0.19-2.193 0.249-3.081 0.841-1.339 0.889-1.73 2.678-2.797 3.887-1.351 1.517-3.603 1.884-5.63 1.671-1.79-0.201-3.603-0.77-5.345-0.308-1.268 0.332-2.335 1.185-3.461 1.861-2.311 1.399-5.013 2.098-7.704 2.062-0.154-0.877-0.237-1.778-0.237-2.702 0-2.904 0.794-5.618 2.181-7.941 0.676-0.273 1.351-0.569 2.086-0.806 4.113-1.375 8.711 0.462 12.93-0.557 1.932-0.462 3.662-1.505 5.476-2.311 0.723-0.32 1.493-0.616 2.264-0.818 1.73 1.316 3.176 2.975 4.231 4.883z"></path>
<path fill="#839196" d="M31.633 17.043c-0.154 3.188-1.256 6.139-3.046 8.533-2.394 0.64-4.693 1.813-7.159 1.825-2.785 0.024-5.487-1.434-8.249-1.031-1.707 0.249-3.224 1.197-4.764 2.003-0.427 0.225-0.865 0.439-1.327 0.616-1.873-1.327-3.449-3.070-4.575-5.084 0.166-0.083 0.344-0.154 0.521-0.225 2.596-0.936 5.452-0.119 8.201 0.213 1.529 0.19 3.070 0.225 4.599 0.107 0.699-0.059 1.41-0.154 2.015-0.51 0.593-0.356 1.019-0.948 1.493-1.458 2.228-2.276 5.57-2.56 8.474-3.354 1.434-0.367 2.56-0.984 3.816-1.636z"></path>
<path fill="#7c878d" d="M16.949 9.161c0.632-0.27 0.878-1.113 0.549-1.884s-1.108-1.176-1.74-0.906c-0.632 0.27-0.878 1.113-0.549 1.884s1.108 1.176 1.74 0.906z"></path>
<path fill="#b2c4cc" d="M9.162 16.356c0.178 0.403 0.047 0.853-0.296 0.995-0.332 0.142-0.747-0.071-0.924-0.474s-0.047-0.853 0.296-0.995c0.332-0.154 0.747 0.071 0.924 0.474z"></path>
<path fill="#b2c4cc" d="M6.578 8.308c-0.036 0.213-0.213 0.367-0.391 0.344s-0.296-0.237-0.261-0.45c0.036-0.213 0.213-0.367 0.391-0.344 0.178 0.036 0.296 0.237 0.261 0.45z"></path>
<path fill="#7c878d" d="M9.209 23.929c-0.036 0.213-0.213 0.367-0.391 0.344s-0.296-0.237-0.261-0.45c0.036-0.213 0.213-0.367 0.391-0.344 0.19 0.036 0.296 0.237 0.261 0.45z"></path>
<path fill="#7c878d" d="M24.581 8.308c-0.036 0.213-0.213 0.367-0.391 0.344-0.178-0.036-0.296-0.237-0.261-0.45s0.213-0.367 0.391-0.344c0.19 0.036 0.296 0.237 0.261 0.45z"></path>
<path fill="#7c878d" d="M23.881 23.301c-0.166 0.403-0.581 0.628-0.924 0.486-0.332-0.142-0.474-0.593-0.296-0.996 0.166-0.403 0.581-0.628 0.924-0.486 0.332 0.142 0.462 0.593 0.296 0.996z"></path>
<path fill="#7c878d" opacity="0.2" d="M31.644 16.296c0 8.593-6.969 15.561-15.561 15.561-0.379 0-0.747-0.012-1.126-0.036-4.516-0.32-8.498-2.56-11.129-5.914 4.255-0.107 9.316-1.647 14.163-4.622 5.819-3.567 9.956-8.356 11.556-12.776 0.356 0.604 0.664 1.244 0.936 1.896 0.747 1.813 1.161 3.804 1.161 5.89z"></path>
<path fill="#7c878d" opacity="0.3" d="M31.644 16.296c0 8.593-6.969 15.561-15.561 15.561-0.379 0-0.747-0.012-1.126-0.036 2.145-1.185 4.302-2.714 6.329-4.551 5.879-5.31 9.244-11.84 9.197-16.877 0.747 1.825 1.161 3.816 1.161 5.902z"></path>
<path fill="#ffffff" opacity="0.1" d="M15.822 5.049c2.062 2.667 1.209 6.779-1.908 9.185s-7.301 2.181-9.363-0.486c-2.062-2.667-1.209-6.779 1.908-9.173 3.105-2.418 7.301-2.204 9.363 0.474z"></path>
<path fill="#ffffff" opacity="0.1" d="M18.228 5.167c2.584 3.354 1.517 8.521-2.406 11.544s-9.185 2.75-11.781-0.604c-2.584-3.354-1.517-8.521 2.406-11.544s9.197-2.75 11.781 0.604z"></path>
</symbol>

<symbol id="icon-Neptune" viewBox="0 0 33 32">
<path fill="#2f4bb6" d="M24.601 23.527c4.135-4.632 3.731-11.739-0.901-15.874s-11.739-3.731-15.874 0.901c-4.135 4.632-3.731 11.739 0.901 15.874s11.739 3.731 15.874-0.901z"></path>
<path fill="#28409b" d="M21.557 18.704c-0.123 0.773-0.357 1.584-0.955 2.085-0.592 0.496-1.419 0.587-2.192 0.587-2.459-0.005-4.864-0.709-7.317-0.88-0.885-0.064-1.813-0.043-2.619 0.341-0.677 0.32-1.179 0.875-1.552 1.509-1.493-2.203-2.219-4.944-1.84-7.787 0.171-1.28 0.549-2.485 1.099-3.573 0.107 0.048 0.219 0.101 0.331 0.149 0.587 0.245 1.291 0.389 1.829 0.059 0.88-0.533 0.843-1.984 1.749-2.475 0.336-0.181 0.741-0.187 1.125-0.171 1.019 0.048 2.064 0.245 2.907 0.821s1.44 1.589 1.285 2.597c-0.128 0.843-0.752 1.557-1.504 1.968-0.405 0.224-0.891 0.405-1.083 0.827-0.171 0.363-0.059 0.805 0.187 1.12s0.608 0.517 0.971 0.672c1.792 0.757 3.845 0.549 5.712 0.021 0.309-0.085 0.635-0.187 0.949-0.123 0.443 0.085 0.773 0.485 0.901 0.912 0.123 0.432 0.085 0.896 0.016 1.339z"></path>
<path fill="#28409b" d="M27.371 17.515c-0.251 1.872-0.949 3.584-1.968 5.024-0.389-0.411-0.923-0.683-1.488-0.752-0.235-0.027-0.496-0.027-0.693-0.16-0.165-0.112-0.256-0.299-0.32-0.485-0.24-0.72-0.064-1.557 0.443-2.123 0.325-0.363 0.773-0.619 0.997-1.045 0.123-0.24 0.165-0.517 0.181-0.789 0.037-0.741-0.133-1.525-0.651-2.059-0.507-0.517-1.253-0.709-1.973-0.8-0.896-0.123-1.813-0.133-2.715-0.032-0.427 0.048-0.853 0.117-1.275 0.043s-0.837-0.336-0.965-0.741c-0.203-0.672 0.496-1.323 1.195-1.397 0.693-0.075 1.371 0.224 2.043 0.411s1.483 0.24 1.995-0.235c0.165-0.149 0.293-0.373 0.245-0.592-0.069-0.309-0.421-0.437-0.683-0.619-0.592-0.405-0.784-1.237-0.56-1.92s0.8-1.2 1.445-1.509c0.245-0.117 0.528-0.229 0.821-0.32 2.848 2.395 4.453 6.144 3.925 10.101z"></path>
<path fill="#28409b" d="M21.435 26.005c-1.984 1.040-4.299 1.499-6.683 1.179-1.584-0.208-3.051-0.741-4.336-1.52 0.053-0.011 0.101-0.021 0.155-0.032 1.621-0.309 3.291 0.085 4.944 0.037 1.152-0.032 2.288-0.277 3.44-0.235 0.848 0.032 1.696 0.229 2.48 0.571z"></path>
<path fill="#3f5bc4" d="M18.971 7.899c-2.176 0.667-4.4-1.12-6.672-0.987-1.547 0.091-2.88 1.003-4.325 1.488 1.579-1.707 3.675-2.907 6-3.381 0.091 0.037 0.181 0.075 0.277 0.117 0.645 0.283 1.248 0.661 1.92 0.875 0.907 0.288 1.877 0.267 2.816 0.432 0.299 0.053 0.629 0.155 0.752 0.432 0.192 0.443-0.309 0.88-0.768 1.024z"></path>
<path fill="#3f5bc4" d="M19.408 23.275c-0.091 0.283-0.389 0.437-0.667 0.523-1.941 0.597-4.16-0.683-6.016 0.128-0.869 0.384-1.483 1.157-2.176 1.813-0.875-0.512-1.675-1.136-2.373-1.856 1.339-0.731 2.811-1.584 4.293-1.669 0.917-0.053 1.824 0.208 2.736 0.325 0.816 0.101 1.648 0.080 2.459-0.064 0.384-0.069 0.779-0.165 1.152-0.059 0.379 0.101 0.709 0.491 0.592 0.859z"></path>
<path fill="#3f5bc4" d="M24.699 23.429c-0.288 0.331-0.592 0.64-0.917 0.933-0.091-0.112-0.192-0.213-0.32-0.293-0.224-0.133-0.491-0.176-0.736-0.267s-0.491-0.267-0.539-0.523c-0.059-0.347 0.288-0.651 0.635-0.677 0.352-0.027 0.683 0.139 0.987 0.309 0.299 0.165 0.592 0.341 0.891 0.517z"></path>
<path fill="#3f5bc4" d="M16.069 18.336c-0.443 0.213-0.976 0.459-1.461 0.539-0.592 0.101-1.205 0.075-1.787-0.064-1.232-0.299-1.792-1.333-2.875-1.765-0.901-0.357-1.797 0.336-2.704 0.112-0.773-0.187-1.221-0.752-2.016-0.203-0.064 0.043-0.128 0.091-0.197 0.144-0.053-0.581-0.064-1.173-0.021-1.771 0.395-0.224 0.779-0.491 1.189-0.773 0.011-0.005 0.021-0.011 0.032-0.021 0.4-0.267 0.896-0.448 1.371-0.277 0.427 0.149 0.571 0.592 1.099 0.485 0.315-0.064 0.576-0.256 0.859-0.405 0.357-0.192 2.005-0.8 2.235-0.165 0.208 0.576-1.136 0.389-0.976 1.104 0.048 0.208 0.203 0.368 0.363 0.507 0.816 0.688 2.187 2.053 3.275 2.171 0.555 0.059 1.2-0.085 1.616 0.384z"></path>
<path fill="#3f5bc4" d="M27.467 16.235c-0.64-0.341-1.088-0.997-1.568-1.568-0.688-0.821-1.573-1.552-2.635-1.728-0.245-0.043-0.512-0.059-0.72-0.203s-0.299-0.48-0.107-0.645c0.144-0.117 0.363-0.080 0.539-0.021 1.104 0.352 2.101 1.077 3.259 1.211 0.293 0.037 0.592 0.027 0.88-0.021 0.251 0.96 0.373 1.957 0.352 2.976z"></path>
<path fill="#223684" d="M15.755 10.699c-0.155-0.453-0.011-0.907 0.315-1.019 0.331-0.112 0.72 0.165 0.869 0.619 0.155 0.453 0.011 0.907-0.315 1.019-0.325 0.107-0.715-0.165-0.869-0.619z"></path>
<path fill="#223684" d="M14.795 24.080c0.139-0.299 0.352-0.491 0.485-0.427 0.133 0.059 0.128 0.352-0.005 0.651s-0.352 0.491-0.485 0.427c-0.133-0.064-0.133-0.357 0.005-0.651z"></path>
<path fill="#223684" d="M23.525 18.592c-0.123-0.304-0.117-0.592 0.016-0.651 0.133-0.053 0.347 0.144 0.469 0.448s0.117 0.592-0.016 0.651c-0.139 0.053-0.347-0.144-0.469-0.448z"></path>
<path fill="#5a75e0" d="M8.192 18.96c-0.112-0.272-0.048-0.555 0.139-0.635 0.192-0.080 0.437 0.080 0.549 0.352s0.048 0.56-0.139 0.635c-0.192 0.080-0.437-0.075-0.549-0.352z"></path>
<path fill="#5a75e0" d="M22.715 9.035c0.107-0.171 0.288-0.245 0.405-0.176s0.128 0.272 0.021 0.437c-0.107 0.171-0.288 0.245-0.405 0.176s-0.128-0.267-0.021-0.437z"></path>
<path fill="#5a75e0" d="M20.736 24.213c0.096-0.176 0.272-0.261 0.395-0.197 0.123 0.069 0.144 0.261 0.048 0.437s-0.272 0.261-0.395 0.197c-0.123-0.064-0.144-0.261-0.048-0.437z"></path>
<path fill="#5a75e0" d="M6.901 12.144c0.048-0.085 0.133-0.133 0.197-0.096 0.059 0.032 0.069 0.133 0.021 0.219s-0.133 0.133-0.197 0.096c-0.059-0.037-0.069-0.133-0.021-0.219z"></path>
<path fill="#fff" opacity="0.15800000000000003" d="M15.251 14.436c2.395-1.389 3.372-4.179 2.181-6.233s-4.098-2.593-6.493-1.205c-2.395 1.389-3.372 4.179-2.181 6.233s4.098 2.593 6.493 1.205z"></path>
<path fill="#000" opacity="0.15800000000000003" d="M19.125 8.512c1.499 2.587 0.267 6.096-2.747 7.84-3.013 1.749-6.672 1.067-8.171-1.515s-0.267-6.096 2.747-7.84c3.013-1.749 6.672-1.072 8.171 1.515z"></path>
<path fill="#7c878d" opacity="0.05" d="M27.184 17.467c-0.816 6.149-6.459 10.469-12.608 9.659-0.272-0.037-0.539-0.080-0.8-0.133-3.195-0.656-5.829-2.64-7.397-5.291 3.056 0.331 6.827-0.299 10.565-1.963 4.496-2 7.915-5.029 9.483-8.048 0.192 0.469 0.357 0.955 0.491 1.445 0.363 1.371 0.464 2.837 0.267 4.331z"></path>
<path fill="#7c878d" opacity="0.1" d="M27.184 17.467c-0.816 6.149-6.459 10.469-12.608 9.659-0.272-0.037-0.539-0.080-0.8-0.133 1.648-0.645 3.333-1.531 4.96-2.651 4.709-3.243 7.733-7.589 8.176-11.2 0.368 1.365 0.469 2.832 0.272 4.325z"></path>
</symbol>

<symbol id="icon-Saturn" viewBox="0 0 62 32">
<path fill="#EABC71" d="M31.94 31.68c8.68 0 15.716-7.036 15.716-15.716s-7.036-15.716-15.716-15.716-15.716 7.036-15.716 15.716c0 8.68 7.036 15.716 15.716 15.716z"></path>
<path fill="#f2d994" d="M45.114 24.531c-1.117 0.272-2.343 0.241-3.502 0.157-3.882-0.29-7.716-1.020-11.52-1.835-3.749-0.803-7.601-1.733-10.699-4.009-1.153-0.851-2.174-1.872-3.176-2.898 0.006-3.055 0.894-6.116 2.675-8.755 0.821 0.628 1.666 1.22 2.542 1.775 2.729 1.721 5.675 3.079 8.718 4.136 4.891 1.703 10.017 2.639 15.155 3.23 0.779 0.091 1.564 0.175 2.312 0.374-0.109 2.735-0.954 5.446-2.506 7.825z"></path>
<path fill="#f2d994" opacity="0.48" d="M46.72 10.62c-0.060 0-0.115 0.006-0.175 0.012-4.74 0.193-9.467-0.9-13.863-2.669-2.952-1.189-5.772-2.687-8.507-4.329-0.35-0.211-0.725-0.423-1.105-0.64 0.64-0.441 1.31-0.827 1.992-1.159 0.35 0.248 0.706 0.489 1.069 0.718 5.235 3.339 11.448 4.691 17.528 5.941 0.803 0.163 1.612 0.332 2.397 0.561 0.254 0.507 0.471 1.032 0.664 1.564z"></path>
<path fill="#f2d994" opacity="0.48" d="M39.843 29.549c-1.087 0.634-2.228 1.123-3.405 1.473-3.78-0.344-7.42-1.678-10.934-3.134-2.3-0.948-4.595-1.962-6.654-3.375-0.054-0.036-0.109-0.072-0.163-0.115-0.561-0.881-1.026-1.805-1.395-2.759 1.697 1.214 3.448 2.349 5.331 3.236 5.38 2.554 11.52 2.928 17.22 4.673z"></path>
<path fill="#ecc88b" d="M44.565 6.611c-3.146-0.646-6.442-1.093-9.497-2.095-0.38-0.127-0.767-0.266-1.087-0.507-1.316-0.99-0.175-1.485 0.857-1.286 0.797 0.151 1.534 0.507 2.319 0.719 1.709 0.465 3.478 0.857 5.18 0.749 0.205 0.181 0.411 0.368 0.604 0.561 0.604 0.586 1.141 1.208 1.624 1.86z"></path>
<path fill="#ecc88b" d="M31.656 11.454c-2.765-1.358-5.295-3.309-8.332-4.039-1.123-0.266-2.264-0.507-3.254-1.135-0.109-0.072-0.217-0.145-0.326-0.217 0.308-0.38 0.634-0.749 0.984-1.105 0.223-0.223 0.447-0.441 0.676-0.646 1.914 1.31 3.876 2.512 6.032 3.448 0.217 0.097 0.435 0.187 0.652 0.272 1.371 0.549 2.675 1.256 3.949 1.992 0.386 0.223 1.618 0.694 1.811 1.081 0.592 1.171-1.817 0.531-2.192 0.35z"></path>
<path fill="#ecc88b" d="M47.577 14.37c-0.67-0.223-1.334-0.489-2.011-0.682-1.63-0.471-3.357-0.501-5.041-0.706-0.235-0.030-0.555-0.223-0.417-0.417 0.030-0.048 0.091-0.072 0.139-0.097 0.622-0.266 1.322-0.187 1.992-0.103 1.709 0.217 3.423 0.471 5.138 0.67 0.085 0.441 0.151 0.888 0.199 1.334z"></path>
<path fill="#ecc88b" d="M33.823 20.39c-0.477 0.411-1.183 0.405-1.805 0.284-1.576-0.308-2.977-1.177-4.444-1.829-1.884-0.839-3.9-1.334-5.905-1.829-1.491-0.368-2.989-0.731-4.48-1.099-0.32-0.079-0.64-0.157-0.966-0.248 0.024-1.171 0.175-2.343 0.459-3.484 0.93 0.706 1.829 1.497 2.892 1.986 1.491 0.682 3.079 1.135 4.637 1.642 3.2 1.032 6.322 2.3 9.34 3.78 0.229 0.109 0.489 0.296 0.441 0.543-0.012 0.103-0.091 0.187-0.169 0.254z"></path>
<path fill="#ecc88b" d="M43.152 26.971c-0.308 0.314-0.622 0.604-0.948 0.888-0.555-0.042-1.111-0.012-1.66 0.091-0.586 0.115-1.177 0.308-1.763 0.223-0.537-0.078-1.008-0.392-1.534-0.531-0.64-0.175-1.322-0.091-1.986-0.127-1.654-0.091-3.17-0.918-4.619-1.727-0.284-0.157-0.616-0.465-0.453-0.743 0.121-0.217 0.429-0.205 0.67-0.157 0.948 0.193 1.841 0.586 2.759 0.906 2.143 0.749 4.426 1.081 6.696 1.008 1.141-0.042 2.282-0.181 3.393-0.429-0.175 0.205-0.362 0.405-0.555 0.598z"></path>
<path fill="#ecc88b" d="M25.443 29.18c-0.477 0.072-0.99-0.042-1.449-0.157-0.344-0.085-0.694-0.133-1.045-0.175-0.706-0.495-1.383-1.057-2.017-1.678-0.592-0.58-1.123-1.195-1.606-1.835 0.066 0.036 0.133 0.072 0.193 0.109 0.048 0.030 0.103 0.060 0.151 0.097 0.894 0.58 1.648 1.316 2.687 1.66 0.706 0.235 1.455 0.302 2.192 0.453 0.731 0.151 1.473 0.405 1.992 0.942 0.133 0.139-0.99 0.574-1.099 0.586z"></path>
<path fill="#ca863f" d="M43.49 12.818c-0.29 0.296-0.676 0.399-0.851 0.223-0.181-0.175-0.085-0.555 0.205-0.857 0.29-0.296 0.676-0.399 0.851-0.223 0.181 0.175 0.091 0.562-0.205 0.857z"></path>
<path fill="#ca863f" d="M33.045 18.584c0.169 0.38 0.115 0.773-0.115 0.875-0.229 0.097-0.549-0.127-0.718-0.513-0.169-0.38-0.115-0.773 0.115-0.875 0.229-0.097 0.549 0.133 0.718 0.513z"></path>
<path fill="#ca863f" d="M43.429 19.345c0.078 0.181-0.006 0.392-0.187 0.477-0.181 0.078-0.392-0.006-0.477-0.187-0.078-0.181 0.006-0.392 0.187-0.477 0.181-0.078 0.392 0.006 0.477 0.187z"></path>
<path fill="#ca863f" d="M21.549 24.374c0.078 0.181-0.006 0.392-0.187 0.477-0.181 0.078-0.392-0.006-0.477-0.187-0.078-0.181 0.006-0.392 0.187-0.477 0.181-0.078 0.398 0.006 0.477 0.187z"></path>
<path fill="#f1dbb7" d="M19.816 13.802c-0.29 0.296-0.676 0.399-0.851 0.223-0.181-0.175-0.085-0.555 0.205-0.857 0.29-0.296 0.676-0.399 0.851-0.223s0.085 0.555-0.205 0.857z"></path>
<path fill="#f1dbb7" d="M31.439 27.568c0 0.241-0.127 0.441-0.296 0.441-0.163 0-0.302-0.193-0.302-0.435s0.127-0.441 0.296-0.441c0.169 0 0.302 0.193 0.302 0.435z"></path>
<path fill="#f1dbb7" d="M25.576 9.811c0 0.242-0.127 0.441-0.296 0.441-0.163 0-0.302-0.193-0.302-0.435s0.127-0.441 0.296-0.441c0.169-0.006 0.302 0.187 0.302 0.435z"></path>
<path fill="#f1dbb7" d="M40.851 4.269c-0.175 0.163-0.411 0.199-0.525 0.079-0.109-0.121-0.060-0.35 0.121-0.519 0.175-0.163 0.411-0.199 0.525-0.079 0.109 0.121 0.054 0.35-0.121 0.519z"></path>
<path fill="#7C878D" opacity="0.25" d="M43.134 26.904c-6.074 6.189-16.006 6.273-22.195 0.205-0.272-0.266-0.531-0.543-0.779-0.821-3.019-3.417-4.299-7.843-3.822-12.118 3.134 2.934 7.873 5.398 13.452 6.678 6.702 1.54 13.066 1.020 17.346-1.032-0.175 0.688-0.398 1.365-0.67 2.029-0.743 1.835-1.86 3.562-3.333 5.060z"></path>
<path fill="#7c878d" opacity="0.25" d="M43.134 26.904c-6.074 6.189-16.006 6.273-22.195 0.205-0.272-0.266-0.531-0.543-0.779-0.821 2.379 0.664 5.005 1.087 7.771 1.201 7.988 0.332 15.016-1.986 18.536-5.645-0.743 1.835-1.86 3.562-3.333 5.060z"></path>
<path fill="#D8B794" opacity="0.33" d="M39.746 8.097c-0.392 3.297-3.828 5.591-7.674 5.132s-6.642-3.502-6.243-6.798c0.398-3.297 3.828-5.591 7.674-5.132s6.635 3.508 6.243 6.799z"></path>
<path fill="#ffffff" opacity="0.10" d="M41.358 9.854c-0.495 4.142-4.818 7.034-9.654 6.46-4.836-0.58-8.35-4.408-7.855-8.549s4.818-7.034 9.654-6.46c4.836 0.574 8.35 4.402 7.855 8.549z"></path>
<path fill="#C8B096" d="M44.317 25.648c-4.492-0.809-9.576-1.998-14.901-3.544-4.752-1.383-9.195-2.898-13.096-4.432-9.956-3.925-16.429-7.988-15.752-10.325 0.67-2.306 8.145-2.294 18.463-0.344-0.495 0.712-0.924 1.461-1.286 2.228-4.142-0.423-6.889-0.115-7.215 1.014-0.332 1.147 1.896 2.91 5.724 4.806 3.484 1.727 8.302 3.562 13.718 5.138 6.159 1.787 11.834 2.874 15.849 3.146 3.399 0.229 5.603-0.121 5.899-1.123 0.29-0.984-1.322-2.433-4.22-4.027 0.127-0.9 0.175-1.805 0.151-2.705 8.972 3.701 14.666 7.432 14.032 9.624-0.646 2.228-7.62 2.294-17.365 0.543z"></path>
<path fill="#ffffff" opacity="0.15" d="M2.524 9.069c-0.851-0.833-0.954-1.304-0.918-1.419 0.072-0.242 1.063-0.942 4.583-0.984 2.856-0.036 6.66 0.35 11.073 1.123-0.054 0.097-0.109 0.199-0.163 0.296-6.177-0.519-7.312 0.803-7.62 1.86-0.254 0.869 0.115 1.799 1.093 2.759 1.026 1.008 2.771 2.125 5.192 3.327 1.226 0.61 2.59 1.22 4.063 1.817-1.063-0.386-2.101-0.779-3.122-1.183-6.853-2.705-12.021-5.476-14.183-7.595zM39.831 23.644c2.18 0.392 4.184 0.658 5.917 0.773 4.323 0.296 6.551-0.308 7.010-1.902 0.254-0.869-0.115-1.799-1.093-2.759-0.682-0.67-1.691-1.395-3.007-2.155 0.018-0.163 0.030-0.332 0.042-0.495 5.253 2.264 9.226 4.522 11.019 6.285 0.851 0.833 0.954 1.31 0.918 1.419-0.066 0.229-0.99 0.894-4.251 0.978-2.971 0.072-7.082-0.338-11.876-1.201-1.509-0.272-3.079-0.586-4.679-0.942z"></path>
</symbol>

<symbol id="icon-Sun" viewBox="0 0 14 32">
<path fill="#F9EC35" opacity="0.10" d="M1.687 18.11c4.984 0 9.024-4.040 9.024-9.024s-4.040-9.024-9.024-9.024c-4.984 0-9.024 4.040-9.024 9.024s4.040 9.024 9.024 9.024z"></path>
<path fill="#EAA726" d="M1.687 17.385c4.583 0 8.298-3.715 8.298-8.298s-3.715-8.298-8.298-8.298-8.298 3.715-8.298 8.298c0 4.583 3.715 8.298 8.298 8.298z"></path>
<path fill="#EFC881" d="M6.032 10.151c-0.25-0.144-0.56-0.307-0.572-0.596-0.010-0.237 0.202-0.447 0.171-0.682-0.036-0.281-0.404-0.518-0.271-0.768 0.075-0.142 0.298-0.216 0.277-0.375-0.012-0.092-0.104-0.148-0.186-0.189-0.166-0.081-0.346-0.153-0.53-0.146s-0.378 0.113-0.434 0.29c-0.052 0.163 0.019 0.349-0.042 0.509-0.066 0.174-0.266 0.257-0.449 0.285-0.467 0.073-1.017-0.061-1.365 0.259-0.169 0.154-0.246 0.385-0.39 0.562-0.388 0.475-1.11 0.446-1.719 0.373-0.176-0.296-0.114-0.713 0.142-0.943 0.283-0.256 0.778-0.326 0.871-0.697 0.070-0.279-0.15-0.58-0.053-0.851 0.045-0.126 0.151-0.218 0.25-0.308 0.208-0.188 0.41-0.398 0.506-0.661s0.060-0.593-0.153-0.775c-0.226-0.194-0.559-0.165-0.856-0.193s-0.647-0.199-0.638-0.498c0.009-0.287 0.36-0.517 0.278-0.792-0.051-0.171-0.25-0.251-0.427-0.264s-0.362 0.015-0.531-0.041c-0.169-0.057-0.314-0.249-0.236-0.409 0.070-0.142 0.258-0.166 0.417-0.172 0.226-0.008 0.452-0.016 0.678-0.024 0.087-0.003 0.182-0.010 0.246-0.070 0.090-0.085 0.071-0.231 0.115-0.346 0.093-0.244 0.421-0.282 0.68-0.246s0.555 0.092 0.754-0.078c0.057-0.049 0.101-0.114 0.165-0.152 0.133-0.079 0.3-0.023 0.454-0.018s0.347-0.118 0.288-0.262c-0.239-0.154-0.552-0.186-0.817-0.084-0.275 0.106-0.517 0.35-0.811 0.324-0.25-0.022-0.445-0.234-0.69-0.282-0.462-0.090-0.837 0.414-1.304 0.47-0.328 0.039-0.693-0.143-0.973 0.032-0.142 0.089-0.246 0.263-0.413 0.266-0.244 0.004-0.313-0.331-0.298-0.575-0.3-0.104-0.665 0.034-0.82 0.31-0.024 0.042-0.044 0.092-0.031 0.139 0.034 0.133 0.23 0.091 0.366 0.117 0.204 0.038 0.302 0.296 0.242 0.494s-0.23 0.342-0.401 0.459c-0.758 0.526-1.688 0.782-2.396 1.374-0.078 0.066-0.16 0.153-0.144 0.254 0.014 0.088 0.098 0.145 0.151 0.217 0.141 0.191 0.043 0.474-0.127 0.64s-0.398 0.258-0.587 0.401c-0.19 0.142-0.35 0.375-0.291 0.605 0 0.001 0.89-0.221 0.978-0.234 0.014 0.602-0.703 0.432-0.992 0.758-0.268 0.302 0.001 0.463-0.014 0.744-0.014 0.279-0.385 0.482-0.241 0.792 0.045 0.096 0.136 0.162 0.19 0.253 0.15 0.252 0.001 0.656 0.246 0.817 0.182 0.119 0.473 0.005 0.612 0.171 0.2 0.238-0.182 0.722 0.093 0.866 0.14 0.074 0.308-0.060 0.364-0.208s0.050-0.315 0.117-0.459c0.103-0.222 0.347-0.333 0.546-0.476s0.374-0.402 0.26-0.619c-0.048-0.090-0.138-0.152-0.186-0.242-0.117-0.222 0.068-0.476 0.232-0.666s0.319-0.478 0.16-0.671c0.293-0.114 0.527-0.368 0.616-0.67 0.050-0.17 0.055-0.351 0.11-0.519s0.177-0.334 0.352-0.362c-0.116 0.176 0.007 0.454 0.215 0.488 0.118 0.019 0.236-0.030 0.355-0.030s0.26 0.086 0.238 0.202c-0.014 0.072-0.082 0.119-0.114 0.186-0.051 0.107 0.006 0.234 0.004 0.352-0.009 0.44-0.786 0.624-0.688 1.054 0.039 0.172 0.21 0.274 0.333 0.4s0.188 0.366 0.038 0.458c0.148 0.233 0.547 0.071 0.633-0.191s-0.009-0.544-0.034-0.819c-0.009-0.097-0.002-0.21 0.076-0.268 0.104-0.078 0.263-0.006 0.377-0.069 0.198-0.11 0.053-0.474 0.233-0.61 0.137-0.104 0.33 0.014 0.449 0.139s0.27 0.273 0.434 0.223c0.134 0.090-0.005 0.294-0.142 0.378s-0.295 0.261-0.182 0.376c0.030 0.030 0.071 0.044 0.102 0.071 0.118 0.102 0.030 0.303-0.098 0.391s-0.294 0.132-0.386 0.258c-0.069 0.094-0.082 0.216-0.113 0.329-0.123 0.447-0.543 0.754-0.978 0.918-0.112 0.042-0.23 0.080-0.314 0.165s-0.116 0.235-0.034 0.322c0.033 0.034 0.078 0.054 0.118 0.082 0.196 0.142 0.136 0.478-0.060 0.619s-0.462 0.136-0.699 0.092c-0.238-0.044-0.475-0.119-0.716-0.097-0.047 0.004-0.097 0.014-0.134 0.045-0.098 0.083-0.019 0.262 0.105 0.298s0.254-0.018 0.371-0.072c-0.046 0.292 0.338 0.45 0.634 0.45s0.661-0.018 0.808 0.239c0.098 0.172 0.048 0.404 0.162 0.566 0.171 0.242 0.575 0.162 0.791 0.364 0.405 0.38-0.274 1.184 0.12 1.574 0.135 0.134 0.346 0.15 0.507 0.251 0.178 0.111 0.281 0.316 0.45 0.441s0.485 0.1 0.512-0.11c0.008-0.059-0.011-0.119-0.012-0.179-0.003-0.308 0.409-0.41 0.717-0.41s0.719-0.086 0.733-0.393c0.142 0.009 0.29 0.016 0.419-0.042s0.232-0.203 0.191-0.339c-0.039-0.132-0.189-0.197-0.324-0.222-0.277-0.052-0.569-0.014-0.837-0.098s-0.513-0.372-0.403-0.632c0.271-0.036 0.58 0.139 0.802-0.021 0.077-0.056 0.124-0.142 0.185-0.216 0.31-0.375 1.010-0.282 1.21 0.162 0.104 0.23 0.080 0.498 0.157 0.738 0.138 0.434 0.634 0.721 1.078 0.622 0.049-0.010 0.099-0.027 0.132-0.064 0.049-0.055 0.045-0.138 0.038-0.212-0.042-0.449-0.118-0.958-0.494-1.207-0.381-0.252-1-0.185-1.187-0.601-0.056-0.126-0.054-0.269-0.088-0.402-0.114-0.455-0.706-0.714-1.118-0.49-0.163-0.208 0.025-0.538 0.279-0.611s0.522 0.023 0.769 0.119c0.332 0.129 0.664 0.258 0.996 0.386 0.188 0.073 0.458 0.116 0.542-0.067 0.166 0.062 0.332 0.125 0.498 0.187-0.051-0.281 0.127-0.586 0.398-0.678 0.266-0.091 0.63-0.021 0.774-0.263 0.143-0.25-0.114-0.545-0.363-0.689zM-3.367 6.024c-0.066 0.079-0.151 0.139-0.221 0.214-0.028 0.030-0.055 0.070-0.045 0.11 0.008 0.031 0.036 0.052 0.056 0.078 0.054 0.071 0.035 0.177-0.015 0.251s-0.125 0.128-0.19 0.19c-0.157 0.15-0.257 0.358-0.275 0.574-0.014 0.164 0.015 0.337-0.050 0.487-0.082 0.19-0.304 0.315-0.322 0.522-0.008 0.090 0.026 0.178 0.058 0.262 0.111 0.294 0.185 0.674-0.050 0.885-0.058 0.052-0.146 0.088-0.214 0.049-0.101-0.058-0.071-0.208-0.028-0.316-0.117-0.092-0.262 0.073-0.406 0.114-0.11 0.033-0.24-0.023-0.293-0.126-0.118-0.232 0.184-0.434 0.32-0.57 0.034-0.034 0.069-0.070 0.079-0.117 0.024-0.106-0.089-0.192-0.19-0.23s-0.224-0.073-0.265-0.174c-0.054-0.134 0.078-0.269 0.206-0.337s0.282-0.135 0.316-0.276c0.021-0.086-0.005-0.194 0.063-0.25s0.182-0.013 0.255-0.063c0.060-0.040 0.069-0.123 0.074-0.195 0.024-0.304 0.137-0.65 0.425-0.751 0.077-0.027 0.17-0.042 0.207-0.114 0.031-0.061 0.006-0.138 0.038-0.199 0.022-0.044 0.070-0.070 0.114-0.092 0.142-0.071 0.282-0.142 0.424-0.213 0.036 0.098-0.007 0.207-0.072 0.287zM-0.533 4.472c-0.132 0.049-0.282 0.034-0.411 0.090-0.019 0.008-0.038 0.018-0.052 0.035-0.029 0.035-0.022 0.086-0.014 0.131 0.055 0.38-0.045 0.763-0.143 1.134-0.033 0.122-0.072 0.254-0.176 0.326s-0.288 0.027-0.296-0.099c-0.004-0.059 0.031-0.114 0.072-0.156 0.119-0.124 0.315-0.218 0.308-0.39-0.006-0.154-0.186-0.261-0.186-0.415-0.001-0.17 0.213-0.277 0.222-0.446 0.010-0.186-0.23-0.283-0.414-0.253s-0.357 0.133-0.542 0.118c0.106-0.103 0.194-0.224 0.262-0.355-0.118-0.034-0.234 0.046-0.348 0.090s-0.287 0.022-0.301-0.101c-0.012-0.106 0.117-0.175 0.224-0.174s0.216 0.040 0.318 0.010c0.088-0.026 0.154-0.096 0.223-0.155 0.161-0.136 0.358-0.221 0.551-0.303-0.019-0.173-0.392-0.118-0.382-0.292 0.003-0.049 0.042-0.087 0.081-0.116 0.242-0.183 0.407-0.091 0.66-0.118 0.238-0.025 0.136-0.258 0.314-0.361 0.048-0.027 0.106-0.026 0.161-0.031 0.198-0.017 0.377-0.118 0.562-0.189s0.404-0.11 0.574-0.008c0.006 0.066-0.083 0.088-0.149 0.091-0.501 0.022-0.951 0.317-1.311 0.665-0.105 0.101-0.208 0.27-0.11 0.378 0.062 0.068 0.19 0.088 0.197 0.18-0.056 0.040-0.112 0.080-0.168 0.119-0.049 0.082 0.057 0.175 0.152 0.19s0.206 0.005 0.27 0.076c0.093 0.106-0.016 0.279-0.148 0.328zM-0.656 10.928c-0.033 0.080-0.024 0.17-0.030 0.258s-0.033 0.182-0.109 0.225c-0.073 0.041-0.186 0.034-0.212 0.113-0.006 0.019-0.006 0.040-0.004 0.060 0.005 0.081 0.010 0.162 0.014 0.243-0.177-0.020-0.379-0.031-0.506 0.094-0.029 0.028-0.059 0.066-0.099 0.061-0.053-0.006-0.068-0.078-0.051-0.128 0.028-0.083 0.101-0.142 0.174-0.19 0.12-0.078 0.254-0.157 0.248-0.318-0.007-0.202-0.14-0.135 0.029-0.327 0.158-0.179 0.192-0.267 0.25-0.501 0.038-0.154 0.134-0.369 0.345-0.272 0.326 0.149 0.022 0.507-0.050 0.683zM0.304 5.893c0.019-0.007 0.041 0 0.060 0.007 0.186 0.065 0.388 0.087 0.584 0.066-0.008-0.069-0.090-0.097-0.158-0.114s-0.149-0.054-0.145-0.123c0.004-0.080 0.112-0.102 0.192-0.099 0.156 0.005 0.312 0.010 0.468 0.014 0.098 0.003 0.358 0.186 0.403 0.014 0.020-0.079-0.030-0.195 0.046-0.224 0.039-0.015 0.083 0.016 0.098 0.054s0.010 0.082 0.005 0.123c-0.026 0.187-0.075 0.407-0.25 0.478 0.025 0.050-0.008 0.112-0.052 0.148s-0.098 0.058-0.138 0.098c-0.059 0.058-0.081 0.15-0.149 0.198-0.062 0.043-0.143 0.038-0.218 0.042s-0.161 0.028-0.19 0.098c-0.013 0.032-0.011 0.068-0.009 0.102 0.008 0.129 0.016 0.258 0.024 0.387 0.002 0.030-0.001 0.069-0.030 0.080-0.010 0.004-0.022 0.003-0.032 0.002-0.145-0.026-0.185-0.21-0.212-0.354-0.030-0.16-0.082-0.315-0.157-0.46s-0.171-0.286-0.18-0.449c-0.001-0.035 0.006-0.077 0.038-0.088zM1.446 14.425c0.041-0.022 0.090-0.022 0.135-0.022 0.134 0 0.266 0.007 0.399 0.022 0.028 0.003 0.060 0.010 0.072 0.034 0.022 0.046-0.045 0.082-0.095 0.091-0.11 0.018-0.22 0.036-0.33 0.054 0.044 0.089-0.054 0.181-0.142 0.226-0.128 0.065-0.265 0.111-0.406 0.138-0.088 0.017-0.179 0.026-0.261 0.063s-0.156 0.108-0.166 0.197c-0.007 0.069 0.008 0.165-0.058 0.183-0.022 0.006-0.045-0.001-0.066-0.009-0.090-0.035-0.168-0.1-0.218-0.182-0.086-0.139-0.1-0.332-0.238-0.421-0.069-0.045-0.161-0.057-0.209-0.123-0.116-0.16 0.161-0.386 0.070-0.561-0.038-0.074-0.141-0.142-0.101-0.215 0.026-0.046 0.093-0.049 0.141-0.026 0.232 0.107 0.125 0.499 0.314 0.671 0.083 0.075 0.208 0.089 0.317 0.062 0.138-0.034 0.238-0.19 0.355-0.212 0.138-0.026 0.26 0.151 0.402 0.086 0.031-0.014 0.055-0.039 0.085-0.055zM1.899 10.824c-0.186 0.153-0.383 0.311-0.62 0.359-0.118 0.024-0.256 0.027-0.333 0.12-0.038 0.046-0.054 0.107-0.067 0.166-0.023 0.098-0.046 0.195-0.069 0.293-0.050 0.025-0.11-0.010-0.142-0.055-0.137-0.19 0.029-0.461-0.031-0.687-0.006-0.026-0.016-0.052-0.011-0.078 0.006-0.030 0.030-0.053 0.053-0.074 0.054-0.049 0.11-0.098 0.164-0.147-0.134-0.043-0.274-0.069-0.414-0.075-0.052-0.002-0.108-0.003-0.15-0.034s-0.059-0.102-0.017-0.133c0.018-0.014 0.042-0.015 0.065-0.017 0.323-0.018 0.64 0.054 0.958 0.101 0.265 0.040 0.502-0.010 0.765-0.006 0.022 0.112-0.066 0.197-0.15 0.266zM4.787 9.103c0.086 0.259 0.353 0.802 0.052 1.017-0.062 0.045-0.142 0.059-0.212 0.089s-0.142 0.086-0.145 0.163c-0.004 0.088 0.079 0.179 0.034 0.254-0.020 0.033-0.058 0.048-0.094 0.060-0.346 0.114-0.737 0.082-1.058-0.089-0.098-0.052-0.202-0.157-0.155-0.257 0.040-0.084 0.159-0.094 0.223-0.162 0.078-0.082 0.047-0.222-0.019-0.314s-0.162-0.162-0.221-0.26c-0.058-0.098-0.062-0.246 0.034-0.306 0.087-0.054 0.198-0.007 0.294 0.024s0.232 0.030 0.27-0.064c0.022-0.055 0.011-0.139 0.069-0.154 0.032-0.009 0.063 0.014 0.095 0.026 0.11 0.039 0.215-0.066 0.286-0.158 0.219-0.289 0.438-0.578 0.658-0.866 0.206 0.184-0.034 0.357-0.108 0.521-0.074 0.162-0.055 0.318-0.003 0.477z"></path>
<path fill="#EFC881" d="M9.316 8.323c-0.064-0.606-0.244-1.277-0.773-1.581-0.006 0.069-0.052 0.132-0.115 0.16-0.194 0.007-0.322-0.198-0.382-0.382s-0.109-0.398-0.276-0.494c-0.098-0.057-0.221-0.060-0.321-0.115s-0.162-0.21-0.070-0.278c0.038-0.028 0.089-0.030 0.137-0.033 0.142-0.010 0.292-0.053 0.385-0.161s0.102-0.295-0.010-0.383c-0.207-0.162-0.466-0.031-0.668-0.268-0.138-0.162-0.17-0.367-0.236-0.562-0.046-0.136-0.070-0.278-0.219-0.333-0.204-0.074-0.464 0.108-0.416 0.326-0.221 0.036-0.392-0.177-0.526-0.322-0.23-0.249-0.515-0.447-0.829-0.578-0.058-0.024-0.122-0.046-0.183-0.034-0.054 0.011-0.098 0.047-0.146 0.074-0.24 0.129-0.529-0.005-0.788-0.091s-0.623-0.075-0.712 0.182c0.61 0.156 1.219 0.311 1.829 0.467 0.166 0.042 0.336 0.086 0.479 0.181-0.457 0.201-0.99 0.224-1.462 0.063-0.134-0.046-0.27-0.106-0.411-0.098s-0.29 0.12-0.278 0.262c0.222 0.063 0.442 0.127 0.664 0.19 0.138 0.039 0.31 0.179 0.214 0.286 0.181-0.027 0.334 0.158 0.353 0.339s-0.050 0.358-0.098 0.535c-0.046 0.176-0.066 0.379 0.040 0.528 0.028 0.039 0.066 0.074 0.114 0.088 0.155 0.044 0.262-0.145 0.334-0.289 0.194-0.392 0.577-0.685 1.006-0.771 0.106 0.019 0.205 0.085 0.262 0.176-0.2 0.139-0.394 0.287-0.581 0.444-0.048 0.041-0.101 0.094-0.091 0.156 0.010 0.067 0.084 0.101 0.147 0.124 0.297 0.106 0.594 0.211 0.891 0.317 0.053 0.018 0.109 0.040 0.14 0.086 0.056 0.083 0.002 0.198-0.070 0.267s-0.163 0.126-0.202 0.219c-0.072 0.172 0.086 0.362 0.261 0.428s0.37 0.058 0.546 0.119c0.176 0.062 0.34 0.244 0.278 0.42-0.019 0.054-0.058 0.109-0.039 0.163 0.022 0.062 0.106 0.076 0.147 0.128 0.064 0.082-0.014 0.202-0.101 0.26s-0.198 0.107-0.224 0.208c-0.037 0.142 0.112 0.254 0.233 0.336 0.26 0.178 0.492 0.518 0.332 0.789-0.068 0.115-0.198 0.194-0.237 0.322-0.109 0.356 0.549 0.623 0.419 0.972-0.060 0.162-0.255 0.216-0.391 0.322-0.207 0.162-0.271 0.442-0.319 0.701-0.035 0.19-0.066 0.399 0.027 0.569s0.37 0.241 0.479 0.081c0.1-0.146-0.006-0.363 0.083-0.516 0.061-0.106 0.197-0.148 0.265-0.25 0.056-0.084 0.057-0.192 0.094-0.286 0.113-0.282 0.51-0.343 0.659-0.608 0.115-0.204 0.044-0.465-0.075-0.667s-0.282-0.38-0.366-0.598c-0.083-0.219-0.056-0.509 0.143-0.632 0.119-0.074 0.272-0.071 0.396-0.136 0.269-0.142 0.29-0.517 0.258-0.822zM6.665 4.612c-0.006 0.016-0.024 0.025-0.040 0.031-0.077 0.030-0.162 0.042-0.243 0.034 0.058 0.086 0.102 0.182 0.134 0.281-0.31-0.046-0.625-0.001-0.934 0.045-0.087 0.013-0.178 0.027-0.25 0.079-0.068 0.050-0.109 0.127-0.167 0.188s-0.153 0.103-0.225 0.061c-0.026-0.102 0.068-0.19 0.142-0.266s0.134-0.208 0.052-0.275c-0.039-0.032-0.094-0.033-0.145-0.029s-0.104 0.011-0.15-0.012c-0.046-0.022-0.073-0.088-0.038-0.125 0.016-0.017 0.041-0.023 0.065-0.026 0.044-0.006 0.088-0.006 0.133-0.006 0.152 0 0.67 0.086 0.786-0.002 0.21-0.158-0.29-0.151-0.209-0.338 0.029-0.066 0.128-0.063 0.185-0.020s0.090 0.11 0.141 0.161c0.174 0.171 0.466 0.082 0.701 0.146 0.034 0.010 0.075 0.039 0.062 0.073zM9.086 8.294c-0.057 0.104-0.142 0.151-0.186 0.263-0.034 0.088 0.010 0.189-0.060 0.269-0.119 0.138-0.382-0.015-0.517 0.108-0.055 0.050-0.074 0.138-0.142 0.17-0.070 0.033-0.158-0.020-0.182-0.093s0-0.155 0.042-0.22c0.107-0.166 0.305-0.246 0.49-0.318 0.055-0.022 0.115-0.047 0.143-0.099 0.043-0.079-0.011-0.181-0.086-0.23s-0.166-0.067-0.249-0.104c-0.074-0.033-0.15-0.114-0.111-0.186 0.042-0.079 0.198-0.086 0.186-0.175-0.015-0.11-0.168-0.172-0.048-0.296 0.098-0.101 0.221-0.012 0.318 0.040 0.152 0.081 0.33 0.187 0.412 0.346 0.079 0.152 0.074 0.374-0.009 0.526z"></path>
<path fill="#EFC881" d="M4.466 1.925c0.137 0.068 0.294 0.121 0.377 0.249 0.033 0.050 0.052 0.11 0.086 0.159s0.081 0.086 0.128 0.122c0.182 0.142 0.364 0.285 0.546 0.426 0.102 0.079 0.214 0.163 0.344 0.161 0.086-0.002 0.17-0.042 0.256-0.035 0.168 0.012 0.326 0.195 0.475 0.118 0.078-0.085 0.023-0.248-0.090-0.27-0.24-0.046-0.186-0.27-0.44-0.332-0.29-0.070-0.508-0.049-0.732-0.302-0.082-0.093-0.146-0.202-0.238-0.287-0.168-0.157-0.406-0.21-0.633-0.25-0.074-0.013-0.172-0.014-0.202 0.056-0.032 0.074 0.049 0.147 0.122 0.184z"></path>
<path fill="#000" opacity="0.05" d="M2.995 2.994c1.384 1.794 0.81 4.557-1.283 6.171s-4.91 1.469-6.294-0.325c-1.384-1.794-0.81-4.557 1.283-6.171s4.91-1.469 6.294 0.325z"></path>
<path fill="#fff" opacity="0.05" d="M0.684 7.831c1.663-1.283 2.12-3.479 1.020-4.905s-3.34-1.541-5.003-0.258c-1.663 1.283-2.12 3.479-1.020 4.905s3.34 1.541 5.003 0.258z"></path>
</symbol>

<symbol id="icon-Uranus" viewBox="0 0 32 32">
<path fill="#76a4b2" d="M21.276 26.128c5.617-2.949 7.779-9.893 4.83-15.51s-9.893-7.779-15.51-4.83c-5.617 2.949-7.779 9.893-4.83 15.51s9.893 7.779 15.51 4.83z"></path>
<path fill="#60919f" d="M23.321 16.842c-1.274 0.129-2.364-1.28-3.615-1.039-1.499 0.292-1.853 2.639-3.352 2.931-0.78 0.146-1.572-0.393-1.948-1.095-0.382-0.702-0.432-1.527-0.438-2.324s0.028-1.611-0.202-2.375c-0.14-0.472-0.427-0.949-0.887-1.106-0.286-0.095-0.601-0.062-0.904-0.022-1.297 0.168-2.599 0.337-3.902 0.241-0.926-0.067-1.858-0.281-2.684-0.696 0.371-0.853 0.859-1.679 1.46-2.448 1.185-1.521 2.672-2.667 4.312-3.408 0.135 0.039 0.281 0.067 0.432 0.090 0.971 0.146 1.959 0.022 2.942 0.045 1.084 0.022 2.161 0.225 3.183 0.589 0.685 0.247 1.381 0.601 1.752 1.224 0.219 0.365 0.309 0.792 0.477 1.19 0.354 0.848 1.044 1.51 1.763 2.077 0.724 0.567 1.499 1.078 2.133 1.74s1.123 1.533 1.089 2.448c-0.022 0.921-0.696 1.847-1.611 1.937z"></path>
<path fill="#60919f" d="M24.393 23.725c-4.003 4.368-10.751 5.002-15.512 1.302-2.773-2.156-4.289-5.328-4.429-8.584 0.135-0.051 0.269-0.079 0.415-0.095 0.758-0.079 1.482 0.354 2.010 0.898 0.387 0.393 0.904 0.904 1.392 0.646 0.376-0.197 0.415-0.724 0.702-1.044 0.348-0.393 1.005-0.365 1.426-0.062 0.427 0.303 0.657 0.808 0.808 1.308s0.236 1.022 0.46 1.499c0.477 1.016 1.493 1.651 2.481 2.184 0.769 0.415 1.555 0.808 2.352 1.168 0.483 0.219 1.005 0.432 1.527 0.337 0.741-0.129 1.229-0.82 1.869-1.207 0.651-0.399 1.493-0.472 2.206-0.202 0.837 0.326 1.432 1.055 2.083 1.679 0.051 0.067 0.123 0.118 0.208 0.174z"></path>
<path fill="#86bdcc" opacity="0.13" d="M27.189 13.693c-0.404-0.213-0.814-0.427-1.185-0.702-0.696-0.528-1.207-1.258-1.707-1.971-0.764-1.1-1.527-2.201-2.296-3.295-0.112-0.163-0.23-0.387-0.118-0.55 0.168-0.247 0.55-0.034 0.752 0.185 1.224 1.314 2.414 2.953 3.84 4.059 0.314 0.73 0.556 1.493 0.713 2.274z"></path>
<path fill="#86bdcc" opacity="0.13" d="M13.345 14.175c-1.729-0.825-2.712-2.734-4.362-3.705-0.775-0.455-1.656-0.679-2.481-1.033-0.006-0.006-0.017-0.006-0.022-0.011 0.123-0.174 0.247-0.348 0.376-0.517 0.163-0.213 0.337-0.421 0.516-0.618 0.977 0.494 1.999 0.915 2.88 1.583 0.691 0.522 1.263 1.179 1.898 1.763 0.96 0.881 2.072 1.589 3.273 2.094-0.241 0.764-1.353 0.786-2.077 0.444z"></path>
<path fill="#86bdcc" opacity="0.13" d="M24.988 23.017c-0.954 1.224-2.105 2.201-3.38 2.925-0.219-0.152-0.449-0.286-0.679-0.41-1.443-0.78-3.29-1.314-3.846-2.858-0.292-0.808-0.18-1.813-0.803-2.403-0.444-0.421-1.112-0.466-1.679-0.702s-1.078-0.915-0.73-1.42c0.247-0.359 0.803-0.371 1.185-0.157s0.64 0.589 0.915 0.932c1.19 1.454 2.97 2.414 4.839 2.599 0.589 0.062 1.196 0.045 1.768 0.191 0.82 0.202 1.673 0.674 2.408 1.302z"></path>
<path fill="#86bdcc" opacity="0.13" d="M15.001 27.408c-1.050-0.084-2.094-0.309-3.099-0.685-0.163-0.163-0.32-0.331-0.472-0.505-0.488-0.567-0.915-1.218-1.555-1.606-0.601-0.359-1.274-0.444-1.976-0.438-1.162-1.134-2.043-2.47-2.622-3.907 0.893 0.421 1.875 0.707 2.779 1.112 2.285 1.039 4.059 2.919 5.766 4.761 0.393 0.427 0.786 0.848 1.179 1.269z"></path>
<path fill="#88bfcf" d="M23.405 12.783c0.067-0.342 0.326-0.578 0.578-0.528 0.247 0.051 0.393 0.371 0.326 0.713s-0.326 0.578-0.578 0.528c-0.253-0.051-0.393-0.371-0.326-0.713z"></path>
<path fill="#88bfcf" d="M12.244 24.522c0.067-0.342 0.326-0.578 0.578-0.528 0.247 0.051 0.393 0.371 0.326 0.713s-0.326 0.578-0.578 0.528c-0.253-0.056-0.399-0.371-0.326-0.713z"></path>
<path fill="#88bfcf" d="M18.436 6.759c0.051-0.236 0.23-0.404 0.404-0.365 0.174 0.034 0.275 0.258 0.225 0.494s-0.23 0.404-0.404 0.365c-0.174-0.034-0.275-0.253-0.225-0.494z"></path>
<path fill="#88bfcf" d="M20.289 24.269c0.191-0.152 0.432-0.168 0.545-0.028 0.112 0.135 0.051 0.371-0.14 0.528-0.191 0.152-0.432 0.168-0.545 0.028s-0.051-0.376 0.14-0.528z"></path>
<path fill="#88bfcf" d="M8.034 15.119c0.208-0.168 0.466-0.197 0.573-0.056 0.112 0.135 0.028 0.382-0.18 0.55s-0.466 0.197-0.573 0.056c-0.107-0.135-0.028-0.382 0.18-0.55z"></path>
<path fill="#52808d" d="M11.868 8.342c0.359-0.292 0.808-0.337 0.999-0.101s0.051 0.662-0.309 0.954c-0.359 0.292-0.808 0.337-0.999 0.101s-0.051-0.662 0.309-0.954z"></path>
<path fill="#52808d" d="M14.978 22.585c0.123-0.225 0.342-0.337 0.483-0.258 0.146 0.079 0.163 0.326 0.039 0.55s-0.342 0.337-0.488 0.258c-0.14-0.084-0.157-0.331-0.034-0.55z"></path>
<path fill="#52808d" d="M23.876 18.594c0.247-0.090 0.494-0.034 0.55 0.129 0.056 0.157-0.096 0.359-0.343 0.449s-0.494 0.034-0.55-0.129c-0.056-0.157 0.095-0.359 0.342-0.449z"></path>
<path fill="#52808d" d="M7.916 21.513c0.011-0.264 0.157-0.472 0.326-0.46 0.168 0.006 0.298 0.225 0.286 0.488s-0.157 0.472-0.326 0.46c-0.168-0.006-0.298-0.225-0.286-0.488z"></path>
<path fill="#7c878d" opacity="0.2" d="M25.011 22.989c-3.891 5.002-11.093 5.906-16.101 2.015-0.219-0.168-0.432-0.348-0.634-0.528-2.481-2.229-3.784-5.333-3.795-8.477 2.526 1.864 6.175 3.256 10.33 3.716 4.997 0.556 9.578-0.359 12.508-2.212-0.067 0.517-0.174 1.027-0.314 1.527-0.387 1.398-1.050 2.74-1.993 3.958z"></path>
<path fill="#7c878d" opacity="0.2" d="M25.011 22.989c-3.891 5.002-11.093 5.906-16.101 2.015-0.219-0.168-0.432-0.348-0.634-0.528 1.785 0.281 3.728 0.365 5.743 0.219 5.827-0.432 10.734-2.706 12.985-5.665-0.387 1.398-1.050 2.74-1.993 3.958z"></path>
<path fill="#fff" opacity="0.2" d="M20.705 9.415c-0.011 2.425-2.307 4.385-5.137 4.373s-5.114-1.982-5.109-4.413c0.011-2.425 2.307-4.385 5.137-4.373s5.114 1.982 5.109 4.413z"></path>
<path fill="#76A4B2" opacity="0.2" d="M22.024 10.549c-0.011 3.054-2.902 5.513-6.462 5.502s-6.434-2.498-6.428-5.547c0.011-3.054 2.902-5.513 6.462-5.502s6.434 2.498 6.428 5.547z"></path>
</symbol>

<symbol id="icon-Venus" viewBox="0 0 32 32">
<path fill="#9F621A" d="M15.844 31.386c8.469 0 15.334-6.865 15.334-15.334s-6.865-15.334-15.334-15.334c-8.469 0-15.334 6.865-15.334 15.334s6.865 15.334 15.334 15.334z"></path>
<path fill="#c27720" d="M22.685 11.364c-0.294-0.605-0.138-1.289 0.363-1.539 0.493-0.242 1.142 0.043 1.436 0.649s0.138 1.289-0.363 1.539c-0.493 0.242-1.142-0.043-1.436-0.649z"></path>
<path fill="#c27720" d="M5.129 21.622c-0.337-0.225-0.458-0.623-0.277-0.899s0.605-0.32 0.934-0.095c0.337 0.225 0.458 0.623 0.277 0.899s-0.605 0.32-0.934 0.095z"></path>
<path fill="#c27720" d="M25.929 24.51c-0.19-0.13-0.259-0.355-0.156-0.519s0.346-0.182 0.536-0.052c0.19 0.13 0.259 0.355 0.156 0.519-0.104 0.156-0.346 0.173-0.536 0.052z"></path>
<path fill="#8d5718" d="M16.104 27.797c-0.458-0.303-0.631-0.865-0.381-1.237s0.83-0.441 1.289-0.13c0.458 0.303 0.631 0.865 0.381 1.237-0.251 0.381-0.83 0.441-1.289 0.13z"></path>
<path fill="#8d5718" d="M18.404 15.343c-0.355-0.233-0.484-0.657-0.285-0.943 0.19-0.285 0.631-0.337 0.986-0.104s0.484 0.657 0.285 0.943c-0.19 0.285-0.631 0.337-0.986 0.104z"></path>
<path fill="#8d5718" d="M18.625 4.414c0.276-0.213 0.292-0.655 0.035-0.988s-0.689-0.43-0.965-0.217-0.292 0.655-0.035 0.988c0.257 0.333 0.689 0.43 0.965 0.217z"></path>
<path fill="#835117" opacity="0.50" d="M12.636 13.881c-0.744 0.432-1.626 0.536-2.422 0.856s-1.574 0.995-1.548 1.859c0.009 0.311 0.121 0.605 0.147 0.917 0.052 0.528-0.147 1.038-0.277 1.548-0.406 1.574-0.242 3.295 0.45 4.765 0.294 0.614 0.675 1.332 0.346 1.92-0.268 0.484-0.874 0.623-1.341 0.917-0.631 0.398-0.986 1.098-1.064 1.851-3.875-2.776-6.409-7.325-6.409-12.463 0-0.917 0.078-1.816 0.234-2.69 0.441-0.441 0.934-0.796 1.488-0.995 0.718-0.251 1.505-0.259 2.24-0.467 1.107-0.311 2.067-1.098 2.603-2.119 0.424-0.804 0.571-1.738 1.046-2.517 0.822-1.367 2.638-2.032 4.151-1.539 0.822 0.268 1.609 1.081 1.341 1.903-0.277 0.865-1.557 1.245-1.539 2.145 0.017 0.848 1.15 1.185 1.514 1.955 0.363 0.787-0.216 1.721-0.96 2.154z"></path>
<path fill="#835117" opacity="0.45" d="M31.17 16.052c0 8.303-6.599 15.057-14.832 15.317-0.303-1.176-1.462-2.162-1.271-3.364 1.245-0.112 2.006-1.565 1.842-2.802s-0.969-2.292-1.756-3.269c-0.787-0.977-1.6-2.015-1.79-3.252-0.061-0.407-0.052-0.848 0.13-1.219 0.415-0.891 1.678-1.142 2.543-0.683 0.873 0.45 1.375 1.41 1.574 2.378 0.147 0.744 0.337 1.73 1.098 1.799 0.476 0.043 0.934-0.355 1.401-0.259 0.51 0.112 0.709 0.744 0.709 1.263s-0.078 1.090 0.216 1.522c0.467 0.683 1.539 0.528 2.249 0.112 1.453-0.839 2.439-2.43 2.534-4.108 0.035-0.597-0.061-1.245-0.493-1.652-0.424-0.398-1.064-0.458-1.617-0.64-0.562-0.182-1.142-0.649-1.038-1.228 1.704-0.19 3.408-0.389 5.111-0.579 0.32-0.035 0.666-0.086 0.899-0.303 0.528-0.484 0.112-1.375-0.407-1.868-0.528-0.484-1.211-0.969-1.228-1.687-0.026-1.107 1.583-1.505 2.551-0.977 0.277 0.156 0.536 0.346 0.77 0.562 0.528 1.565 0.804 3.217 0.804 4.938z"></path>
<path fill="#835117" opacity="0.60" d="M28.489 7.377c-0.856-0.147-1.686-0.528-2.543-0.761-1.194-0.329-2.733-0.225-3.347 0.856-0.173 0.311-0.268 0.701-0.571 0.908-0.744 0.502-1.834-0.649-2.586-0.164-0.605 0.389-0.303 1.323 0.026 1.963 0.381 0.752 0.701 1.591 0.519 2.413-0.182 0.813-1.072 1.514-1.851 1.202-0.83-0.329-0.951-1.453-0.882-2.344 0.13-1.505 0.432-2.992 0.908-4.428 0.363-1.098 0.787-2.448 0-3.295-0.398-0.432-0.995-0.588-1.505-0.856-0.519-0.268-1.012-0.787-0.891-1.358 0.069-0.329 0.32-0.571 0.597-0.77 5.034 0.156 9.453 2.75 12.125 6.633z"></path>
<path fill="#7c878d" opacity="0.10" d="M31.178 16.052c0 8.467-6.867 15.325-15.334 15.325-0.372 0-0.744-0.017-1.107-0.035-4.445-0.32-8.363-2.525-10.958-5.829 4.195-0.104 9.185-1.626 13.95-4.549 5.725-3.511 9.808-8.225 11.382-12.592 0.346 0.597 0.657 1.228 0.917 1.868 0.744 1.79 1.15 3.753 1.15 5.812z"></path>
<path fill="#7c878d" opacity="0.10" d="M31.178 16.052c0 8.467-6.867 15.325-15.334 15.325-0.372 0-0.744-0.017-1.107-0.035 2.11-1.168 4.238-2.664 6.236-4.48 5.795-5.232 9.107-11.658 9.055-16.623 0.744 1.79 1.15 3.753 1.15 5.812z"></path>
<path fill="#ffffff" opacity="0.02" d="M18.517 5.085c2.551 3.304 1.496 8.398-2.361 11.373s-9.055 2.707-11.598-0.597c-2.551-3.304-1.496-8.398 2.361-11.373s9.046-2.707 11.598 0.597z"></path>
<path fill="#ffffff" opacity="0.02" d="M14.242 14.002c3.067-2.366 3.909-6.415 1.882-9.043s-6.158-2.841-9.224-0.475-3.909 6.415-1.882 9.043c2.028 2.628 6.158 2.841 9.224 0.475z"></path>
</symbol>
</defs>
</svg>
