<!-- Generated by IcoMoon.io -->
<svg version="1.1" xmlns="http://www.w3.org/2000/svg" width="32" height="32" viewBox="0 0 32 32">
<title>Uranus</title>
<path fill="#76a4b2" d="M21.276 26.128c5.617-2.949 7.779-9.893 4.83-15.51s-9.893-7.779-15.51-4.83c-5.617 2.949-7.779 9.893-4.83 15.51s9.893 7.779 15.51 4.83z"></path>
<path fill="#60919f" d="M23.321 16.842c-1.274 0.129-2.364-1.28-3.615-1.039-1.499 0.292-1.853 2.639-3.352 2.931-0.78 0.146-1.572-0.393-1.948-1.095-0.382-0.702-0.432-1.527-0.438-2.324s0.028-1.611-0.202-2.375c-0.14-0.472-0.427-0.949-0.887-1.106-0.286-0.095-0.601-0.062-0.904-0.022-1.297 0.168-2.599 0.337-3.902 0.241-0.926-0.067-1.858-0.281-2.684-0.696 0.371-0.853 0.859-1.679 1.46-2.448 1.185-1.521 2.672-2.667 4.312-3.408 0.135 0.039 0.281 0.067 0.432 0.090 0.971 0.146 1.959 0.022 2.942 0.045 1.084 0.022 2.161 0.225 3.183 0.589 0.685 0.247 1.381 0.601 1.752 1.224 0.219 0.365 0.309 0.792 0.477 1.19 0.354 0.848 1.044 1.51 1.763 2.077 0.724 0.567 1.499 1.078 2.133 1.74s1.123 1.533 1.089 2.448c-0.022 0.921-0.696 1.847-1.611 1.937z"></path>
<path fill="#60919f" d="M24.393 23.725c-4.003 4.368-10.751 5.002-15.512 1.302-2.773-2.156-4.289-5.328-4.429-8.584 0.135-0.051 0.269-0.079 0.415-0.095 0.758-0.079 1.482 0.354 2.010 0.898 0.387 0.393 0.904 0.904 1.392 0.646 0.376-0.197 0.415-0.724 0.702-1.044 0.348-0.393 1.005-0.365 1.426-0.062 0.427 0.303 0.657 0.808 0.808 1.308s0.236 1.022 0.46 1.499c0.477 1.016 1.493 1.651 2.481 2.184 0.769 0.415 1.555 0.808 2.352 1.168 0.483 0.219 1.005 0.432 1.527 0.337 0.741-0.129 1.229-0.82 1.869-1.207 0.651-0.399 1.493-0.472 2.206-0.202 0.837 0.326 1.432 1.055 2.083 1.679 0.051 0.067 0.123 0.118 0.208 0.174z"></path>
<path fill="#86bdcc" opacity="0.13" d="M27.189 13.693c-0.404-0.213-0.814-0.427-1.185-0.702-0.696-0.528-1.207-1.258-1.707-1.971-0.764-1.1-1.527-2.201-2.296-3.295-0.112-0.163-0.23-0.387-0.118-0.55 0.168-0.247 0.55-0.034 0.752 0.185 1.224 1.314 2.414 2.953 3.84 4.059 0.314 0.73 0.556 1.493 0.713 2.274z"></path>
<path fill="#86bdcc" opacity="0.13" d="M13.345 14.175c-1.729-0.825-2.712-2.734-4.362-3.705-0.775-0.455-1.656-0.679-2.481-1.033-0.006-0.006-0.017-0.006-0.022-0.011 0.123-0.174 0.247-0.348 0.376-0.517 0.163-0.213 0.337-0.421 0.516-0.618 0.977 0.494 1.999 0.915 2.88 1.583 0.691 0.522 1.263 1.179 1.898 1.763 0.96 0.881 2.072 1.589 3.273 2.094-0.241 0.764-1.353 0.786-2.077 0.444z"></path>
<path fill="#86bdcc" opacity="0.13" d="M24.988 23.017c-0.954 1.224-2.105 2.201-3.38 2.925-0.219-0.152-0.449-0.286-0.679-0.41-1.443-0.78-3.29-1.314-3.846-2.858-0.292-0.808-0.18-1.813-0.803-2.403-0.444-0.421-1.112-0.466-1.679-0.702s-1.078-0.915-0.73-1.42c0.247-0.359 0.803-0.371 1.185-0.157s0.64 0.589 0.915 0.932c1.19 1.454 2.97 2.414 4.839 2.599 0.589 0.062 1.196 0.045 1.768 0.191 0.82 0.202 1.673 0.674 2.408 1.302z"></path>
<path fill="#86bdcc" opacity="0.13" d="M15.001 27.408c-1.050-0.084-2.094-0.309-3.099-0.685-0.163-0.163-0.32-0.331-0.472-0.505-0.488-0.567-0.915-1.218-1.555-1.606-0.601-0.359-1.274-0.444-1.976-0.438-1.162-1.134-2.043-2.47-2.622-3.907 0.893 0.421 1.875 0.707 2.779 1.112 2.285 1.039 4.059 2.919 5.766 4.761 0.393 0.427 0.786 0.848 1.179 1.269z"></path>
<path fill="#88bfcf" d="M23.405 12.783c0.067-0.342 0.326-0.578 0.578-0.528 0.247 0.051 0.393 0.371 0.326 0.713s-0.326 0.578-0.578 0.528c-0.253-0.051-0.393-0.371-0.326-0.713z"></path>
<path fill="#88bfcf" d="M12.244 24.522c0.067-0.342 0.326-0.578 0.578-0.528 0.247 0.051 0.393 0.371 0.326 0.713s-0.326 0.578-0.578 0.528c-0.253-0.056-0.399-0.371-0.326-0.713z"></path>
<path fill="#88bfcf" d="M18.436 6.759c0.051-0.236 0.23-0.404 0.404-0.365 0.174 0.034 0.275 0.258 0.225 0.494s-0.23 0.404-0.404 0.365c-0.174-0.034-0.275-0.253-0.225-0.494z"></path>
<path fill="#88bfcf" d="M20.289 24.269c0.191-0.152 0.432-0.168 0.545-0.028 0.112 0.135 0.051 0.371-0.14 0.528-0.191 0.152-0.432 0.168-0.545 0.028s-0.051-0.376 0.14-0.528z"></path>
<path fill="#88bfcf" d="M8.034 15.119c0.208-0.168 0.466-0.197 0.573-0.056 0.112 0.135 0.028 0.382-0.18 0.55s-0.466 0.197-0.573 0.056c-0.107-0.135-0.028-0.382 0.18-0.55z"></path>
<path fill="#52808d" d="M11.868 8.342c0.359-0.292 0.808-0.337 0.999-0.101s0.051 0.662-0.309 0.954c-0.359 0.292-0.808 0.337-0.999 0.101s-0.051-0.662 0.309-0.954z"></path>
<path fill="#52808d" d="M14.978 22.585c0.123-0.225 0.342-0.337 0.483-0.258 0.146 0.079 0.163 0.326 0.039 0.55s-0.342 0.337-0.488 0.258c-0.14-0.084-0.157-0.331-0.034-0.55z"></path>
<path fill="#52808d" d="M23.876 18.594c0.247-0.090 0.494-0.034 0.55 0.129 0.056 0.157-0.096 0.359-0.343 0.449s-0.494 0.034-0.55-0.129c-0.056-0.157 0.095-0.359 0.342-0.449z"></path>
<path fill="#52808d" d="M7.916 21.513c0.011-0.264 0.157-0.472 0.326-0.46 0.168 0.006 0.298 0.225 0.286 0.488s-0.157 0.472-0.326 0.46c-0.168-0.006-0.298-0.225-0.286-0.488z"></path>
<path fill="#7c878d" opacity="0.2" d="M25.011 22.989c-3.891 5.002-11.093 5.906-16.101 2.015-0.219-0.168-0.432-0.348-0.634-0.528-2.481-2.229-3.784-5.333-3.795-8.477 2.526 1.864 6.175 3.256 10.33 3.716 4.997 0.556 9.578-0.359 12.508-2.212-0.067 0.517-0.174 1.027-0.314 1.527-0.387 1.398-1.050 2.74-1.993 3.958z"></path>
<path fill="#7c878d" opacity="0.2" d="M25.011 22.989c-3.891 5.002-11.093 5.906-16.101 2.015-0.219-0.168-0.432-0.348-0.634-0.528 1.785 0.281 3.728 0.365 5.743 0.219 5.827-0.432 10.734-2.706 12.985-5.665-0.387 1.398-1.050 2.74-1.993 3.958z"></path>
<path fill="#fff" opacity="0.2" d="M20.705 9.415c-0.011 2.425-2.307 4.385-5.137 4.373s-5.114-1.982-5.109-4.413c0.011-2.425 2.307-4.385 5.137-4.373s5.114 1.982 5.109 4.413z"></path>
<path fill="#000" opacity="0.2" d="M22.024 10.549c-0.011 3.054-2.902 5.513-6.462 5.502s-6.434-2.498-6.428-5.547c0.011-3.054 2.902-5.513 6.462-5.502s6.434 2.498 6.428 5.547z"></path>
</svg>
