<!-- Generated by IcoMoon.io -->
<svg version="1.1" xmlns="http://www.w3.org/2000/svg" width="32" height="32" viewBox="0 0 32 32">
<title>Venus</title>
<path fill="#000" d="M15.844 31.386c8.469 0 15.334-6.865 15.334-15.334s-6.865-15.334-15.334-15.334c-8.469 0-15.334 6.865-15.334 15.334s6.865 15.334 15.334 15.334z"></path>
<path fill="#c27720" d="M22.685 11.364c-0.294-0.605-0.138-1.289 0.363-1.539 0.493-0.242 1.142 0.043 1.436 0.649s0.138 1.289-0.363 1.539c-0.493 0.242-1.142-0.043-1.436-0.649z"></path>
<path fill="#c27720" d="M5.129 21.622c-0.337-0.225-0.458-0.623-0.277-0.899s0.605-0.32 0.934-0.095c0.337 0.225 0.458 0.623 0.277 0.899s-0.605 0.32-0.934 0.095z"></path>
<path fill="#c27720" d="M25.929 24.51c-0.19-0.13-0.259-0.355-0.156-0.519s0.346-0.182 0.536-0.052c0.19 0.13 0.259 0.355 0.156 0.519-0.104 0.156-0.346 0.173-0.536 0.052z"></path>
<path fill="#8d5718" d="M16.104 27.797c-0.458-0.303-0.631-0.865-0.381-1.237s0.83-0.441 1.289-0.13c0.458 0.303 0.631 0.865 0.381 1.237-0.251 0.381-0.83 0.441-1.289 0.13z"></path>
<path fill="#8d5718" d="M18.404 15.343c-0.355-0.233-0.484-0.657-0.285-0.943 0.19-0.285 0.631-0.337 0.986-0.104s0.484 0.657 0.285 0.943c-0.19 0.285-0.631 0.337-0.986 0.104z"></path>
<path fill="#8d5718" d="M18.625 4.414c0.276-0.213 0.292-0.655 0.035-0.988s-0.689-0.43-0.965-0.217-0.292 0.655-0.035 0.988c0.257 0.333 0.689 0.43 0.965 0.217z"></path>
<path fill="#835117" opacity="0.26" d="M12.636 13.881c-0.744 0.432-1.626 0.536-2.422 0.856s-1.574 0.995-1.548 1.859c0.009 0.311 0.121 0.605 0.147 0.917 0.052 0.528-0.147 1.038-0.277 1.548-0.406 1.574-0.242 3.295 0.45 4.765 0.294 0.614 0.675 1.332 0.346 1.92-0.268 0.484-0.874 0.623-1.341 0.917-0.631 0.398-0.986 1.098-1.064 1.851-3.875-2.776-6.409-7.325-6.409-12.463 0-0.917 0.078-1.816 0.234-2.69 0.441-0.441 0.934-0.796 1.488-0.995 0.718-0.251 1.505-0.259 2.24-0.467 1.107-0.311 2.067-1.098 2.603-2.119 0.424-0.804 0.571-1.738 1.046-2.517 0.822-1.367 2.638-2.032 4.151-1.539 0.822 0.268 1.609 1.081 1.341 1.903-0.277 0.865-1.557 1.245-1.539 2.145 0.017 0.848 1.15 1.185 1.514 1.955 0.363 0.787-0.216 1.721-0.96 2.154z"></path>
<path fill="#835117" opacity="0.26" d="M31.17 16.052c0 8.303-6.599 15.057-14.832 15.317-0.303-1.176-1.462-2.162-1.271-3.364 1.245-0.112 2.006-1.565 1.842-2.802s-0.969-2.292-1.756-3.269c-0.787-0.977-1.6-2.015-1.79-3.252-0.061-0.407-0.052-0.848 0.13-1.219 0.415-0.891 1.678-1.142 2.543-0.683 0.873 0.45 1.375 1.41 1.574 2.378 0.147 0.744 0.337 1.73 1.098 1.799 0.476 0.043 0.934-0.355 1.401-0.259 0.51 0.112 0.709 0.744 0.709 1.263s-0.078 1.090 0.216 1.522c0.467 0.683 1.539 0.528 2.249 0.112 1.453-0.839 2.439-2.43 2.534-4.108 0.035-0.597-0.061-1.245-0.493-1.652-0.424-0.398-1.064-0.458-1.617-0.64-0.562-0.182-1.142-0.649-1.038-1.228 1.704-0.19 3.408-0.389 5.111-0.579 0.32-0.035 0.666-0.086 0.899-0.303 0.528-0.484 0.112-1.375-0.407-1.868-0.528-0.484-1.211-0.969-1.228-1.687-0.026-1.107 1.583-1.505 2.551-0.977 0.277 0.156 0.536 0.346 0.77 0.562 0.528 1.565 0.804 3.217 0.804 4.938z"></path>
<path fill="#835117" opacity="0.26" d="M28.489 7.377c-0.856-0.147-1.686-0.528-2.543-0.761-1.194-0.329-2.733-0.225-3.347 0.856-0.173 0.311-0.268 0.701-0.571 0.908-0.744 0.502-1.834-0.649-2.586-0.164-0.605 0.389-0.303 1.323 0.026 1.963 0.381 0.752 0.701 1.591 0.519 2.413-0.182 0.813-1.072 1.514-1.851 1.202-0.83-0.329-0.951-1.453-0.882-2.344 0.13-1.505 0.432-2.992 0.908-4.428 0.363-1.098 0.787-2.448 0-3.295-0.398-0.432-0.995-0.588-1.505-0.856-0.519-0.268-1.012-0.787-0.891-1.358 0.069-0.329 0.32-0.571 0.597-0.77 5.034 0.156 9.453 2.75 12.125 6.633z"></path>
<path fill="#7c878d" opacity="0.2" d="M31.178 16.052c0 8.467-6.867 15.325-15.334 15.325-0.372 0-0.744-0.017-1.107-0.035-4.445-0.32-8.363-2.525-10.958-5.829 4.195-0.104 9.185-1.626 13.95-4.549 5.725-3.511 9.808-8.225 11.382-12.592 0.346 0.597 0.657 1.228 0.917 1.868 0.744 1.79 1.15 3.753 1.15 5.812z"></path>
<path fill="#7c878d" opacity="0.2" d="M31.178 16.052c0 8.467-6.867 15.325-15.334 15.325-0.372 0-0.744-0.017-1.107-0.035 2.11-1.168 4.238-2.664 6.236-4.48 5.795-5.232 9.107-11.658 9.055-16.623 0.744 1.79 1.15 3.753 1.15 5.812z"></path>
<path fill="#000" opacity="0.2" d="M18.517 5.085c2.551 3.304 1.496 8.398-2.361 11.373s-9.055 2.707-11.598-0.597c-2.551-3.304-1.496-8.398 2.361-11.373s9.046-2.707 11.598 0.597z"></path>
<path fill="#fff" opacity="0.08" d="M14.242 14.002c3.067-2.366 3.909-6.415 1.882-9.043s-6.158-2.841-9.224-0.475-3.909 6.415-1.882 9.043c2.028 2.628 6.158 2.841 9.224 0.475z"></path>
</svg>
